<svg xmlns="http://www.w3.org/2000/svg" xmlns:xlink="http://www.w3.org/1999/xlink" width="500" zoomAndPan="magnify" viewBox="0 0 375 374.999991" height="500" preserveAspectRatio="xMidYMid meet" version="1.0"><defs><clipPath id="a0a13dc2c3"><path d="M 117.386719 257.351562 L 230 257.351562 L 230 337.5 L 117.386719 337.5 Z M 117.386719 257.351562 " clip-rule="nonzero"/></clipPath><clipPath id="47c243cf54"><path d="M 134.636719 257.351562 L 212.636719 257.351562 C 217.210938 257.351562 221.597656 259.167969 224.832031 262.402344 C 228.066406 265.636719 229.886719 270.023438 229.886719 274.601562 L 229.886719 320.25 C 229.886719 324.824219 228.066406 329.210938 224.832031 332.449219 C 221.597656 335.683594 217.210938 337.5 212.636719 337.5 L 134.636719 337.5 C 130.0625 337.5 125.671875 335.683594 122.4375 332.449219 C 119.203125 329.210938 117.386719 324.824219 117.386719 320.25 L 117.386719 274.601562 C 117.386719 270.023438 119.203125 265.636719 122.4375 262.402344 C 125.671875 259.167969 130.0625 257.351562 134.636719 257.351562 Z M 134.636719 257.351562 " clip-rule="nonzero"/></clipPath></defs><g clip-path="url(#a0a13dc2c3)"><g clip-path="url(#47c243cf54)"><path fill="#ffffff" d="M 117.386719 257.351562 L 229.78125 257.351562 L 229.78125 337.5 L 117.386719 337.5 Z M 117.386719 257.351562 " fill-opacity="1" fill-rule="nonzero"/></g></g><path fill="#6cf5c2" d="M 83.558594 297.21875 C 80.910156 299.011719 77.3125 298.320312 75.519531 295.675781 C 73.726562 293.03125 74.417969 289.433594 77.0625 287.644531 L 77.21875 287.539062 L 37.503906 287.539062 C 34.292969 287.539062 31.6875 284.9375 31.6875 281.726562 C 31.6875 278.519531 34.292969 275.917969 37.503906 275.917969 L 77.21875 275.917969 L 77.0625 275.8125 C 74.417969 274.019531 73.726562 270.421875 75.519531 267.777344 C 77.3125 265.136719 80.910156 264.445312 83.558594 266.234375 L 99.242188 276.871094 C 99.875 277.277344 100.4375 277.820312 100.886719 278.480469 C 102.679688 281.125 101.988281 284.726562 99.34375 286.515625 Z M 83.558594 297.21875 " fill-opacity="1" fill-rule="evenodd"/><path fill="#fe646f" d="M 50.039062 302.167969 C 52.683594 300.375 56.285156 301.066406 58.078125 303.710938 C 59.871094 306.355469 59.179688 309.953125 56.53125 311.746094 L 56.378906 311.851562 L 96.09375 311.851562 C 99.304688 311.851562 101.90625 314.453125 101.90625 317.660156 C 101.90625 320.871094 99.304688 323.472656 96.09375 323.472656 L 56.378906 323.472656 L 56.53125 323.578125 C 59.179688 325.367188 59.871094 328.964844 58.078125 331.609375 C 56.285156 334.253906 52.683594 334.945312 50.039062 333.152344 L 34.355469 322.519531 C 33.722656 322.109375 33.160156 321.570312 32.710938 320.90625 C 30.914062 318.261719 31.605469 314.664062 34.253906 312.875 Z M 50.039062 302.167969 " fill-opacity="1" fill-rule="evenodd"/><path fill="#fe646f" d="M 291.488281 287.644531 C 294.136719 289.433594 294.828125 293.03125 293.035156 295.675781 C 291.242188 298.320312 287.640625 299.011719 284.996094 297.21875 L 269.210938 286.515625 C 266.566406 284.726562 265.871094 281.128906 267.667969 278.484375 C 268.117188 277.820312 268.679688 277.28125 269.3125 276.871094 L 284.996094 266.238281 C 287.640625 264.445312 291.242188 265.136719 293.035156 267.78125 C 294.828125 270.425781 294.136719 274.023438 291.488281 275.8125 L 291.335938 275.917969 L 331.050781 275.917969 C 334.261719 275.917969 336.863281 278.519531 336.863281 281.730469 C 336.863281 284.9375 334.261719 287.539062 331.050781 287.539062 L 291.335938 287.539062 Z M 291.488281 287.644531 " fill-opacity="1" fill-rule="evenodd"/><path fill="#6cf5c2" d="M 312.019531 311.746094 C 309.375 309.953125 308.683594 306.355469 310.476562 303.710938 C 312.269531 301.066406 315.867188 300.375 318.515625 302.167969 L 334.296875 312.871094 C 336.945312 314.664062 337.636719 318.261719 335.84375 320.90625 C 335.394531 321.570312 334.828125 322.109375 334.195312 322.519531 L 318.515625 333.152344 C 315.867188 334.945312 312.269531 334.253906 310.476562 331.609375 C 308.683594 328.964844 309.371094 325.367188 312.019531 323.574219 L 312.171875 323.472656 L 272.457031 323.472656 C 269.246094 323.472656 266.644531 320.871094 266.644531 317.660156 C 266.644531 314.453125 269.246094 311.851562 272.457031 311.851562 L 312.171875 311.851562 Z M 312.019531 311.746094 " fill-opacity="1" fill-rule="evenodd"/><path fill="#b1b1b5" d="M 259.996094 91.003906 L 277.753906 91.003906 L 277.753906 207.65625 L 259.996094 207.65625 Z M 90.800781 91.003906 L 108.554688 91.003906 L 108.554688 207.65625 L 90.800781 207.65625 Z M 147.199219 91.003906 L 164.953125 91.003906 L 164.953125 207.65625 L 147.199219 207.65625 Z M 203.597656 91.003906 L 221.351562 91.003906 L 221.351562 207.65625 L 203.597656 207.65625 Z M 203.597656 91.003906 " fill-opacity="1" fill-rule="evenodd"/><path fill="#9c9c9e" d="M 270.484375 91.003906 L 277.753906 91.003906 L 277.753906 207.65625 L 270.484375 207.65625 Z M 101.289062 91.003906 L 108.554688 91.003906 L 108.554688 207.65625 L 101.289062 207.65625 Z M 157.6875 91.003906 L 164.953125 91.003906 L 164.953125 207.65625 L 157.6875 207.65625 Z M 214.085938 91.003906 L 221.351562 91.003906 L 221.351562 207.65625 L 214.085938 207.65625 Z M 214.085938 91.003906 " fill-opacity="1" fill-rule="evenodd"/><path fill="#eceff1" d="M 84.28125 200.3125 L 115.070312 200.3125 C 118.097656 200.3125 120.566406 202.78125 120.566406 205.804688 L 120.566406 224.609375 C 120.566406 227.632812 118.097656 230.097656 115.070312 230.097656 L 84.28125 230.097656 C 81.257812 230.097656 78.789062 227.632812 78.789062 224.609375 L 78.789062 205.804688 C 78.789062 202.78125 81.257812 200.3125 84.28125 200.3125 Z M 253.480469 200.3125 L 284.269531 200.3125 C 287.296875 200.3125 289.765625 202.78125 289.765625 205.804688 L 289.765625 224.609375 C 289.765625 227.632812 287.296875 230.097656 284.269531 230.097656 L 253.480469 230.097656 C 250.453125 230.097656 247.988281 227.632812 247.988281 224.609375 L 247.988281 205.804688 C 247.988281 202.78125 250.453125 200.3125 253.480469 200.3125 Z M 197.082031 200.3125 L 227.871094 200.3125 C 230.894531 200.3125 233.363281 202.78125 233.363281 205.804688 L 233.363281 224.609375 C 233.363281 227.632812 230.894531 230.097656 227.871094 230.097656 L 197.082031 230.097656 C 194.054688 230.097656 191.585938 227.632812 191.585938 224.609375 L 191.585938 205.804688 C 191.585938 202.78125 194.054688 200.3125 197.082031 200.3125 Z M 140.679688 200.3125 L 171.46875 200.3125 C 174.496094 200.3125 176.964844 202.78125 176.964844 205.804688 L 176.964844 224.609375 C 176.964844 227.632812 174.496094 230.097656 171.46875 230.097656 L 140.679688 230.097656 C 137.65625 230.097656 135.1875 227.632812 135.1875 224.609375 L 135.1875 205.804688 C 135.1875 202.78125 137.65625 200.3125 140.679688 200.3125 Z M 140.679688 200.3125 " fill-opacity="1" fill-rule="evenodd"/><path fill="#d1d1d6" d="M 107.804688 200.3125 L 115.070312 200.3125 C 118.097656 200.3125 120.566406 202.78125 120.566406 205.804688 L 120.566406 224.609375 C 120.566406 227.632812 118.097656 230.097656 115.070312 230.097656 L 107.804688 230.097656 C 110.828125 230.097656 113.296875 227.632812 113.296875 224.609375 L 113.296875 205.804688 C 113.296875 202.78125 110.828125 200.3125 107.804688 200.3125 Z M 277.003906 200.3125 L 284.269531 200.3125 C 287.296875 200.3125 289.765625 202.78125 289.765625 205.804688 L 289.765625 224.609375 C 289.765625 227.632812 287.296875 230.097656 284.269531 230.097656 L 277.003906 230.097656 C 280.027344 230.097656 282.496094 227.632812 282.496094 224.609375 L 282.496094 205.804688 C 282.496094 202.78125 280.027344 200.3125 277.003906 200.3125 Z M 220.601562 200.3125 L 227.871094 200.3125 C 230.894531 200.3125 233.363281 202.78125 233.363281 205.804688 L 233.363281 224.609375 C 233.363281 227.632812 230.894531 230.097656 227.871094 230.097656 L 220.601562 230.097656 C 223.628906 230.097656 226.097656 227.632812 226.097656 224.609375 L 226.097656 205.804688 C 226.097656 202.78125 223.628906 200.3125 220.601562 200.3125 Z M 164.203125 200.3125 L 171.46875 200.3125 C 174.496094 200.3125 176.964844 202.78125 176.964844 205.804688 L 176.964844 224.609375 C 176.964844 227.632812 174.496094 230.097656 171.46875 230.097656 L 164.203125 230.097656 C 167.230469 230.097656 169.699219 227.632812 169.699219 224.609375 L 169.699219 205.804688 C 169.699219 202.78125 167.230469 200.3125 164.203125 200.3125 Z M 164.203125 200.3125 " fill-opacity="1" fill-rule="evenodd"/><path fill="#d1d1d6" d="M 71.765625 215.34375 L 296.785156 215.34375 C 299.8125 215.34375 302.28125 217.808594 302.28125 220.835938 L 302.28125 237.214844 L 66.273438 237.214844 L 66.273438 220.835938 C 66.273438 217.808594 68.738281 215.34375 71.765625 215.34375 Z M 71.765625 215.34375 " fill-opacity="1" fill-rule="evenodd"/><path fill="#b1b1b5" d="M 289.519531 215.34375 L 296.785156 215.34375 C 299.8125 215.34375 302.28125 217.808594 302.28125 220.835938 L 302.28125 237.214844 L 295.011719 237.214844 L 295.011719 220.835938 C 295.011719 217.808594 292.542969 215.34375 289.519531 215.34375 Z M 289.519531 215.34375 " fill-opacity="1" fill-rule="evenodd"/><path fill="#b1b1b5" d="M 54.449219 249.480469 L 314.105469 249.480469 C 315.304688 249.480469 316.285156 248.503906 316.285156 247.304688 L 316.285156 238.164062 C 316.285156 235.140625 313.816406 232.671875 310.789062 232.671875 L 57.761719 232.671875 C 54.734375 232.671875 52.265625 235.140625 52.265625 238.164062 L 52.265625 247.304688 C 52.265625 248.503906 53.246094 249.480469 54.449219 249.480469 Z M 54.449219 249.480469 " fill-opacity="1" fill-rule="evenodd"/><path fill="#9c9c9e" d="M 306.835938 249.480469 L 314.105469 249.480469 C 315.304688 249.480469 316.285156 248.503906 316.285156 247.304688 L 316.285156 238.164062 C 316.285156 235.140625 313.816406 232.671875 310.789062 232.671875 L 303.523438 232.671875 C 306.550781 232.671875 309.015625 235.140625 309.015625 238.164062 L 309.015625 247.304688 C 309.015625 248.503906 308.039062 249.480469 306.835938 249.480469 Z M 306.835938 249.480469 " fill-opacity="1" fill-rule="evenodd"/><path fill="#eceff1" d="M 253.480469 78.734375 L 284.269531 78.734375 C 287.296875 78.734375 289.765625 81.203125 289.765625 84.226562 L 289.765625 101.339844 C 289.765625 104.367188 287.296875 106.832031 284.269531 106.832031 L 253.480469 106.832031 C 250.453125 106.832031 247.988281 104.367188 247.988281 101.339844 L 247.988281 84.226562 C 247.988281 81.203125 250.453125 78.734375 253.480469 78.734375 Z M 84.28125 78.734375 L 115.070312 78.734375 C 118.097656 78.734375 120.566406 81.203125 120.566406 84.226562 L 120.566406 101.339844 C 120.566406 104.367188 118.097656 106.832031 115.070312 106.832031 L 84.28125 106.832031 C 81.257812 106.832031 78.789062 104.367188 78.789062 101.339844 L 78.789062 84.226562 C 78.789062 81.203125 81.257812 78.734375 84.28125 78.734375 Z M 140.679688 78.734375 L 171.46875 78.734375 C 174.496094 78.734375 176.964844 81.203125 176.964844 84.226562 L 176.964844 101.339844 C 176.964844 104.367188 174.496094 106.832031 171.46875 106.832031 L 140.679688 106.832031 C 137.65625 106.832031 135.1875 104.367188 135.1875 101.339844 L 135.1875 84.226562 C 135.1875 81.203125 137.65625 78.734375 140.679688 78.734375 Z M 197.082031 78.734375 L 227.871094 78.734375 C 230.894531 78.734375 233.363281 81.203125 233.363281 84.226562 L 233.363281 101.339844 C 233.363281 104.367188 230.894531 106.832031 227.871094 106.832031 L 197.082031 106.832031 C 194.054688 106.832031 191.585938 104.367188 191.585938 101.339844 L 191.585938 84.226562 C 191.585938 81.203125 194.054688 78.734375 197.082031 78.734375 Z M 197.082031 78.734375 " fill-opacity="1" fill-rule="evenodd"/><path fill="#d1d1d6" d="M 277.003906 78.734375 L 284.269531 78.734375 C 287.296875 78.734375 289.765625 81.203125 289.765625 84.226562 L 289.765625 101.339844 C 289.765625 104.367188 287.296875 106.832031 284.269531 106.832031 L 277.003906 106.832031 C 280.027344 106.832031 282.496094 104.367188 282.496094 101.339844 L 282.496094 84.226562 C 282.496094 81.203125 280.027344 78.734375 277.003906 78.734375 Z M 107.804688 78.734375 L 115.070312 78.734375 C 118.097656 78.734375 120.566406 81.203125 120.566406 84.226562 L 120.566406 101.339844 C 120.566406 104.367188 118.097656 106.832031 115.070312 106.832031 L 107.804688 106.832031 C 110.828125 106.832031 113.296875 104.367188 113.296875 101.339844 L 113.296875 84.226562 C 113.296875 81.203125 110.828125 78.734375 107.804688 78.734375 Z M 164.203125 78.734375 L 171.46875 78.734375 C 174.496094 78.734375 176.964844 81.203125 176.964844 84.226562 L 176.964844 101.339844 C 176.964844 104.367188 174.496094 106.832031 171.46875 106.832031 L 164.203125 106.832031 C 167.230469 106.832031 169.699219 104.367188 169.699219 101.339844 L 169.699219 84.226562 C 169.699219 81.203125 167.230469 78.734375 164.203125 78.734375 Z M 220.601562 78.734375 L 227.871094 78.734375 C 230.894531 78.734375 233.363281 81.203125 233.363281 84.226562 L 233.363281 101.339844 C 233.363281 104.367188 230.894531 106.832031 227.871094 106.832031 L 220.601562 106.832031 C 223.628906 106.832031 226.097656 104.367188 226.097656 101.339844 L 226.097656 84.226562 C 226.097656 81.203125 223.628906 78.734375 220.601562 78.734375 Z M 220.601562 78.734375 " fill-opacity="1" fill-rule="evenodd"/><path fill="#d1d1d6" d="M 75.179688 91.800781 L 300.199219 91.800781 C 303.222656 91.800781 305.691406 89.335938 305.691406 86.3125 L 305.691406 71.289062 L 69.683594 71.289062 L 69.683594 86.3125 C 69.683594 89.335938 72.152344 91.800781 75.179688 91.800781 Z M 75.179688 91.800781 " fill-opacity="1" fill-rule="evenodd"/><path fill="#b1b1b5" d="M 292.929688 91.800781 L 300.199219 91.800781 C 303.222656 91.800781 305.691406 89.335938 305.691406 86.3125 L 305.691406 71.289062 L 298.425781 71.289062 L 298.425781 86.3125 C 298.425781 89.335938 295.957031 91.800781 292.929688 91.800781 Z M 292.929688 91.800781 " fill-opacity="1" fill-rule="evenodd"/><path fill="#b1b1b5" d="M 187.089844 1.054688 L 315.613281 72.148438 C 316.199219 72.476562 316.484375 73.132812 316.316406 73.785156 C 316.148438 74.433594 315.578125 74.871094 314.910156 74.871094 L 53.644531 74.871094 C 52.972656 74.871094 52.40625 74.433594 52.238281 73.785156 C 52.070312 73.132812 52.351562 72.476562 52.941406 72.148438 L 181.460938 1.054688 C 183.265625 0.0585938 185.289062 0.0585938 187.089844 1.054688 Z M 187.089844 1.054688 " fill-opacity="1" fill-rule="evenodd"/><path fill="#9c9c9e" d="M 187.089844 1.054688 L 315.613281 72.148438 C 316.199219 72.476562 316.484375 73.132812 316.316406 73.785156 C 316.148438 74.433594 315.578125 74.871094 314.910156 74.871094 L 298.425781 74.871094 C 299.097656 74.871094 299.664062 74.433594 299.832031 73.785156 C 300 73.132812 299.71875 72.476562 299.128906 72.148438 L 176.035156 4.058594 L 181.460938 1.054688 C 183.265625 0.0585938 185.289062 0.0585938 187.089844 1.054688 Z M 187.089844 1.054688 " fill-opacity="1" fill-rule="evenodd"/><path fill="#eceff1" d="M 184.277344 56.542969 C 192.296875 56.542969 198.835938 50.003906 198.835938 41.988281 C 198.835938 33.976562 192.296875 27.4375 184.277344 27.4375 C 176.257812 27.4375 169.714844 33.976562 169.714844 41.988281 C 169.714844 50.003906 176.257812 56.542969 184.277344 56.542969 Z M 184.277344 56.542969 " fill-opacity="1" fill-rule="evenodd"/><path fill="#d1d1d6" d="M 184.277344 27.4375 C 176.234375 27.4375 169.714844 33.953125 169.714844 41.988281 C 169.714844 50.027344 176.234375 56.542969 184.277344 56.542969 C 184.996094 56.542969 185.703125 56.488281 186.394531 56.386719 C 179.359375 55.363281 173.953125 49.308594 173.953125 41.988281 C 173.953125 34.671875 179.359375 28.617188 186.394531 27.589844 C 185.703125 27.492188 184.996094 27.4375 184.277344 27.4375 Z M 184.277344 27.4375 " fill-opacity="1" fill-rule="evenodd"/><path fill="#ffd064" d="M 230.933594 235.09375 C 231.695312 235.859375 232.441406 236.640625 233.164062 237.441406 C 233.890625 238.238281 234.597656 239.054688 235.28125 239.890625 C 235.964844 240.726562 236.628906 241.574219 237.273438 242.441406 C 237.917969 243.308594 238.539062 244.191406 239.136719 245.089844 C 239.738281 245.984375 240.316406 246.898438 240.871094 247.824219 C 241.425781 248.75 241.957031 249.6875 242.46875 250.640625 C 242.976562 251.589844 243.460938 252.554688 243.925781 253.53125 C 244.386719 254.507812 244.824219 255.492188 245.238281 256.488281 C 245.648438 257.488281 246.039062 258.492188 246.402344 259.507812 C 246.765625 260.527344 247.105469 261.550781 247.417969 262.582031 C 247.730469 263.617188 248.019531 264.65625 248.28125 265.703125 C 248.542969 266.75 248.78125 267.800781 248.992188 268.859375 C 249.203125 269.917969 249.386719 270.980469 249.546875 272.050781 C 249.703125 273.117188 249.835938 274.1875 249.941406 275.261719 C 250.046875 276.335938 250.128906 277.414062 250.179688 278.488281 C 250.234375 279.566406 250.261719 280.648438 250.261719 281.726562 C 250.261719 282.804688 250.234375 283.882812 250.179688 284.960938 C 250.128906 286.039062 250.046875 287.117188 249.941406 288.191406 C 249.835938 289.265625 249.703125 290.335938 249.546875 291.402344 C 249.386719 292.46875 249.203125 293.53125 248.992188 294.589844 C 248.78125 295.648438 248.546875 296.703125 248.28125 297.75 C 248.019531 298.796875 247.730469 299.835938 247.417969 300.871094 C 247.105469 301.902344 246.765625 302.925781 246.402344 303.941406 C 246.039062 304.957031 245.652344 305.964844 245.238281 306.960938 C 244.824219 307.960938 244.386719 308.945312 243.925781 309.921875 C 243.464844 310.898438 242.976562 311.859375 242.46875 312.8125 C 241.960938 313.765625 241.425781 314.703125 240.871094 315.628906 C 240.316406 316.554688 239.738281 317.464844 239.140625 318.363281 C 238.539062 319.261719 237.917969 320.144531 237.273438 321.011719 C 236.632812 321.878906 235.96875 322.726562 235.28125 323.5625 C 234.597656 324.394531 233.890625 325.214844 233.167969 326.011719 C 232.441406 326.8125 231.699219 327.59375 230.933594 328.355469 C 230.171875 329.121094 229.386719 329.863281 228.589844 330.589844 C 227.789062 331.3125 226.96875 332.019531 226.136719 332.703125 C 225.300781 333.386719 224.449219 334.050781 223.582031 334.695312 C 222.714844 335.335938 221.832031 335.960938 220.933594 336.558594 C 220.035156 337.160156 219.125 337.734375 218.199219 338.289062 C 217.273438 338.84375 216.332031 339.378906 215.378906 339.886719 C 214.429688 340.394531 213.464844 340.878906 212.488281 341.339844 C 211.511719 341.804688 210.523438 342.238281 209.527344 342.652344 C 208.527344 343.066406 207.519531 343.453125 206.503906 343.816406 C 205.488281 344.179688 204.460938 344.519531 203.429688 344.832031 C 202.394531 345.148438 201.355469 345.433594 200.308594 345.695312 C 199.261719 345.960938 198.207031 346.195312 197.148438 346.40625 C 196.089844 346.617188 195.023438 346.800781 193.957031 346.960938 C 192.886719 347.117188 191.816406 347.25 190.742188 347.355469 C 189.667969 347.460938 188.589844 347.539062 187.511719 347.59375 C 186.433594 347.648438 185.355469 347.671875 184.273438 347.671875 C 183.195312 347.671875 182.117188 347.648438 181.035156 347.59375 C 179.957031 347.542969 178.882812 347.460938 177.808594 347.355469 C 176.730469 347.25 175.660156 347.117188 174.59375 346.960938 C 173.523438 346.800781 172.460938 346.617188 171.402344 346.40625 C 170.34375 346.195312 169.289062 345.960938 168.242188 345.699219 C 167.195312 345.433594 166.152344 345.148438 165.121094 344.835938 C 164.085938 344.519531 163.0625 344.183594 162.042969 343.820312 C 161.027344 343.457031 160.019531 343.066406 159.023438 342.652344 C 158.023438 342.242188 157.039062 341.804688 156.0625 341.34375 C 155.085938 340.882812 154.121094 340.394531 153.167969 339.886719 C 152.214844 339.378906 151.277344 338.847656 150.351562 338.292969 C 149.425781 337.738281 148.511719 337.160156 147.613281 336.558594 C 146.714844 335.960938 145.832031 335.339844 144.964844 334.695312 C 144.097656 334.054688 143.246094 333.390625 142.414062 332.703125 C 141.578125 332.019531 140.761719 331.316406 139.960938 330.589844 C 139.160156 329.867188 138.378906 329.121094 137.613281 328.359375 C 136.851562 327.597656 136.105469 326.8125 135.382812 326.015625 C 134.65625 325.214844 133.949219 324.398438 133.265625 323.5625 C 132.582031 322.730469 131.917969 321.878906 131.273438 321.011719 C 130.628906 320.144531 130.007812 319.261719 129.410156 318.367188 C 128.808594 317.46875 128.230469 316.558594 127.675781 315.632812 C 127.121094 314.707031 126.589844 313.765625 126.078125 312.816406 C 125.570312 311.863281 125.085938 310.898438 124.621094 309.921875 C 124.160156 308.949219 123.722656 307.960938 123.308594 306.964844 C 122.898438 305.96875 122.507812 304.960938 122.144531 303.945312 C 121.78125 302.929688 121.441406 301.902344 121.128906 300.871094 C 120.816406 299.839844 120.527344 298.796875 120.265625 297.75 C 120.003906 296.703125 119.765625 295.652344 119.554688 294.59375 C 119.34375 293.535156 119.160156 292.472656 119 291.40625 C 118.84375 290.335938 118.710938 289.265625 118.605469 288.191406 C 118.5 287.117188 118.417969 286.042969 118.367188 284.964844 C 118.3125 283.886719 118.285156 282.808594 118.285156 281.726562 C 118.285156 280.648438 118.3125 279.570312 118.367188 278.492188 C 118.417969 277.414062 118.5 276.339844 118.605469 275.265625 C 118.710938 274.191406 118.84375 273.121094 119 272.050781 C 119.160156 270.984375 119.34375 269.921875 119.554688 268.863281 C 119.765625 267.804688 120 266.75 120.265625 265.703125 C 120.527344 264.65625 120.816406 263.617188 121.128906 262.585938 C 121.441406 261.550781 121.78125 260.527344 122.144531 259.511719 C 122.507812 258.496094 122.894531 257.488281 123.308594 256.492188 C 123.722656 255.496094 124.160156 254.507812 124.621094 253.53125 C 125.082031 252.558594 125.570312 251.59375 126.078125 250.640625 C 126.585938 249.691406 127.121094 248.75 127.675781 247.824219 C 128.230469 246.898438 128.808594 245.988281 129.40625 245.089844 C 130.007812 244.191406 130.628906 243.3125 131.273438 242.445312 C 131.914062 241.578125 132.578125 240.726562 133.265625 239.890625 C 133.949219 239.058594 134.65625 238.242188 135.378906 237.441406 C 136.105469 236.640625 136.847656 235.859375 137.613281 235.097656 C 138.375 234.332031 139.160156 233.589844 139.957031 232.863281 C 140.757812 232.140625 141.578125 231.433594 142.410156 230.75 C 143.246094 230.066406 144.097656 229.402344 144.964844 228.757812 C 145.832031 228.117188 146.714844 227.496094 147.613281 226.894531 C 148.511719 226.296875 149.421875 225.71875 150.347656 225.164062 C 151.273438 224.609375 152.214844 224.078125 153.167969 223.570312 C 154.117188 223.058594 155.082031 222.574219 156.058594 222.113281 C 157.035156 221.652344 158.023438 221.214844 159.019531 220.800781 C 160.019531 220.386719 161.023438 220 162.042969 219.636719 C 163.058594 219.273438 164.085938 218.933594 165.117188 218.621094 C 166.152344 218.308594 167.191406 218.019531 168.238281 217.757812 C 169.285156 217.496094 170.339844 217.257812 171.398438 217.046875 C 172.457031 216.835938 173.523438 216.652344 174.589844 216.496094 C 175.660156 216.335938 176.730469 216.203125 177.804688 216.097656 C 178.878906 215.992188 179.957031 215.914062 181.035156 215.859375 C 182.113281 215.808594 183.191406 215.78125 184.273438 215.78125 C 185.351562 215.78125 186.429688 215.808594 187.511719 215.859375 C 188.589844 215.914062 189.664062 215.992188 190.738281 216.097656 C 191.816406 216.203125 192.886719 216.335938 193.953125 216.496094 C 195.023438 216.652344 196.085938 216.835938 197.144531 217.046875 C 198.203125 217.257812 199.257812 217.496094 200.304688 217.757812 C 201.351562 218.019531 202.394531 218.308594 203.425781 218.621094 C 204.460938 218.933594 205.484375 219.273438 206.503906 219.636719 C 207.519531 220 208.527344 220.386719 209.523438 220.800781 C 210.523438 221.214844 211.507812 221.652344 212.484375 222.113281 C 213.460938 222.574219 214.425781 223.058594 215.378906 223.566406 C 216.332031 224.074219 217.269531 224.609375 218.195312 225.164062 C 219.121094 225.71875 220.035156 226.292969 220.933594 226.894531 C 221.832031 227.492188 222.714844 228.113281 223.582031 228.757812 C 224.449219 229.402344 225.300781 230.066406 226.132812 230.75 C 226.96875 231.433594 227.785156 232.140625 228.585938 232.863281 C 229.386719 233.589844 230.167969 234.332031 230.933594 235.09375 Z M 230.933594 235.09375 " fill-opacity="1" fill-rule="nonzero"/><path fill="#f5b829" d="M 181.492188 215.839844 C 216.648438 217.296875 244.699219 246.238281 244.699219 281.726562 C 244.699219 317.21875 216.648438 346.160156 181.492188 347.617188 C 182.414062 347.65625 183.34375 347.675781 184.277344 347.675781 C 220.71875 347.675781 250.261719 318.148438 250.261719 281.726562 C 250.261719 245.308594 220.71875 215.78125 184.277344 215.78125 C 183.34375 215.78125 182.417969 215.800781 181.492188 215.839844 Z M 181.492188 215.839844 " fill-opacity="1" fill-rule="evenodd"/><path fill="#ffc338" d="M 234.664062 281.726562 C 234.664062 283.378906 234.582031 285.023438 234.421875 286.664062 C 234.257812 288.304688 234.015625 289.933594 233.695312 291.550781 C 233.375 293.167969 232.972656 294.769531 232.492188 296.347656 C 232.015625 297.925781 231.460938 299.476562 230.828125 301 C 230.195312 302.523438 229.492188 304.011719 228.714844 305.464844 C 227.9375 306.921875 227.089844 308.332031 226.171875 309.703125 C 225.253906 311.074219 224.273438 312.398438 223.226562 313.675781 C 222.179688 314.949219 221.074219 316.167969 219.90625 317.335938 C 218.738281 318.5 217.515625 319.609375 216.242188 320.65625 C 214.964844 321.699219 213.640625 322.683594 212.269531 323.597656 C 210.898438 324.515625 209.484375 325.359375 208.027344 326.140625 C 206.574219 326.917969 205.082031 327.621094 203.558594 328.25 C 202.035156 328.882812 200.480469 329.4375 198.902344 329.917969 C 197.324219 330.394531 195.726562 330.796875 194.105469 331.117188 C 192.488281 331.4375 190.855469 331.679688 189.214844 331.84375 C 187.574219 332.003906 185.925781 332.085938 184.277344 332.085938 C 182.625 332.085938 180.980469 332.003906 179.335938 331.84375 C 177.695312 331.679688 176.066406 331.4375 174.445312 331.117188 C 172.828125 330.796875 171.230469 330.394531 169.648438 329.917969 C 168.070312 329.4375 166.519531 328.882812 164.992188 328.25 C 163.46875 327.621094 161.980469 326.917969 160.523438 326.140625 C 159.066406 325.359375 157.65625 324.515625 156.28125 323.597656 C 154.910156 322.683594 153.585938 321.699219 152.3125 320.65625 C 151.035156 319.609375 149.8125 318.5 148.648438 317.335938 C 147.480469 316.167969 146.375 314.949219 145.328125 313.675781 C 144.277344 312.398438 143.296875 311.074219 142.378906 309.703125 C 141.464844 308.332031 140.617188 306.921875 139.839844 305.464844 C 139.058594 304.011719 138.355469 302.523438 137.722656 301 C 137.09375 299.476562 136.539062 297.925781 136.058594 296.347656 C 135.578125 294.769531 135.179688 293.167969 134.855469 291.550781 C 134.535156 289.933594 134.292969 288.304688 134.132812 286.664062 C 133.96875 285.023438 133.890625 283.378906 133.890625 281.726562 C 133.890625 280.078125 133.96875 278.433594 134.132812 276.792969 C 134.292969 275.152344 134.535156 273.523438 134.855469 271.902344 C 135.179688 270.285156 135.578125 268.6875 136.058594 267.109375 C 136.539062 265.53125 137.09375 263.980469 137.722656 262.457031 C 138.355469 260.933594 139.058594 259.445312 139.839844 257.992188 C 140.617188 256.535156 141.464844 255.121094 142.378906 253.75 C 143.296875 252.378906 144.277344 251.058594 145.328125 249.78125 C 146.375 248.507812 147.480469 247.285156 148.648438 246.121094 C 149.8125 244.953125 151.035156 243.847656 152.3125 242.800781 C 153.585938 241.753906 154.910156 240.773438 156.28125 239.859375 C 157.65625 238.941406 159.066406 238.09375 160.523438 237.316406 C 161.980469 236.539062 163.46875 235.835938 164.992188 235.203125 C 166.519531 234.574219 168.070312 234.019531 169.648438 233.539062 C 171.230469 233.0625 172.828125 232.660156 174.445312 232.339844 C 176.066406 232.015625 177.695312 231.777344 179.335938 231.613281 C 180.980469 231.453125 182.625 231.371094 184.277344 231.371094 C 185.925781 231.371094 187.574219 231.453125 189.214844 231.613281 C 190.855469 231.777344 192.488281 232.015625 194.105469 232.339844 C 195.726562 232.660156 197.324219 233.0625 198.902344 233.539062 C 200.480469 234.019531 202.035156 234.574219 203.558594 235.203125 C 205.082031 235.835938 206.574219 236.539062 208.027344 237.316406 C 209.484375 238.09375 210.898438 238.941406 212.269531 239.859375 C 213.640625 240.773438 214.964844 241.753906 216.242188 242.800781 C 217.515625 243.847656 218.738281 244.953125 219.90625 246.121094 C 221.074219 247.285156 222.179688 248.507812 223.226562 249.78125 C 224.273438 251.058594 225.253906 252.378906 226.171875 253.75 C 227.089844 255.121094 227.9375 256.535156 228.714844 257.992188 C 229.492188 259.445312 230.195312 260.933594 230.828125 262.457031 C 231.460938 263.980469 232.015625 265.53125 232.492188 267.109375 C 232.972656 268.6875 233.375 270.285156 233.695312 271.902344 C 234.015625 273.523438 234.257812 275.152344 234.421875 276.792969 C 234.582031 278.433594 234.664062 280.078125 234.664062 281.726562 Z M 234.664062 281.726562 " fill-opacity="1" fill-rule="nonzero"/><path fill="#f5b829" d="M 139.898438 281.726562 C 139.898438 254.925781 160.851562 233.011719 187.28125 231.460938 C 186.285156 231.402344 185.285156 231.371094 184.277344 231.371094 C 156.449219 231.371094 133.890625 253.917969 133.890625 281.726562 C 133.890625 309.539062 156.449219 332.085938 184.277344 332.085938 C 185.285156 332.085938 186.285156 332.054688 187.28125 331.996094 C 160.851562 330.441406 139.898438 308.53125 139.898438 281.726562 Z M 139.898438 281.726562 " fill-opacity="1" fill-rule="evenodd"/><path fill="#ffe177" d="M 204.570312 264.082031 C 205.808594 267.039062 204.417969 270.445312 201.457031 271.683594 C 198.496094 272.925781 195.089844 271.535156 193.847656 268.574219 C 192.542969 265.464844 190.058594 263.667969 187.335938 262.976562 C 185.558594 262.527344 183.707031 262.5 181.988281 262.84375 C 180.335938 263.175781 178.824219 263.84375 177.652344 264.796875 C 176.269531 265.921875 175.390625 267.535156 175.488281 269.53125 C 175.570312 271.296875 176.507812 272.515625 177.816406 273.371094 C 179.796875 274.660156 182.585938 275.386719 185.253906 275.828125 C 189.355469 276.5 193.847656 277.628906 197.632812 279.914062 C 202.097656 282.609375 205.46875 286.667969 206.226562 292.914062 C 206.285156 293.378906 206.320312 293.949219 206.335938 294.621094 C 206.472656 300.378906 203.851562 304.664062 199.914062 307.648438 C 197.085938 309.796875 193.59375 311.179688 190.089844 311.882812 L 190.089844 313.804688 C 190.089844 317.015625 187.484375 319.617188 184.277344 319.617188 C 181.066406 319.617188 178.460938 317.015625 178.460938 313.804688 L 178.460938 311.765625 C 175.675781 311.128906 173.019531 310.035156 170.691406 308.484375 C 166.710938 305.835938 163.660156 301.925781 162.371094 296.75 C 161.605469 293.640625 163.507812 290.5 166.617188 289.734375 C 169.730469 288.972656 172.871094 290.871094 173.636719 293.980469 C 174.164062 296.09375 175.433594 297.707031 177.097656 298.816406 C 179.234375 300.238281 181.992188 300.917969 184.800781 300.847656 C 185.253906 300.839844 185.832031 300.789062 186.53125 300.707031 C 188.921875 300.417969 191.285156 299.675781 192.917969 298.4375 C 194.042969 297.585938 194.789062 296.414062 194.753906 294.894531 C 194.75 294.8125 194.730469 294.609375 194.6875 294.277344 C 194.4375 292.214844 193.238281 290.824219 191.636719 289.855469 C 189.359375 288.484375 186.285156 287.742188 183.390625 287.265625 C 179.410156 286.613281 175.074219 285.417969 171.5 283.085938 C 167.253906 280.3125 164.199219 276.207031 163.902344 270.078125 C 163.609375 264.015625 166.21875 259.15625 170.335938 255.808594 C 172.65625 253.925781 175.460938 252.5625 178.460938 251.785156 L 178.460938 249.652344 C 178.460938 246.441406 181.066406 243.84375 184.277344 243.84375 C 187.484375 243.84375 190.089844 246.441406 190.089844 249.652344 L 190.089844 251.707031 L 190.152344 251.722656 C 196.191406 253.25 201.683594 257.214844 204.570312 264.082031 Z M 204.570312 264.082031 " fill-opacity="1" fill-rule="evenodd"/></svg>