<svg xmlns="http://www.w3.org/2000/svg" xmlns:xlink="http://www.w3.org/1999/xlink" width="500" zoomAndPan="magnify" viewBox="0 0 375 374.999991" height="500" preserveAspectRatio="xMidYMid meet" version="1.0"><path fill="#c1914b" d="M 60.097656 207.734375 C 84.902344 180.308594 38.164062 129.230469 49.785156 92.324219 C 65.429688 42.636719 192.691406 0.0390625 278.351562 54.128906 C 350.085938 99.429688 374.996094 201.394531 343.65625 242.605469 C 334.277344 254.941406 322.609375 258.222656 307.277344 271.121094 C 293.015625 283.121094 291.410156 286.183594 290.382812 288.273438 C 280.238281 308.878906 301.570312 326.964844 297.277344 344.636719 C 290.496094 372.566406 222.667969 387.460938 165.945312 378.011719 C 150.648438 375.460938 73.140625 360.640625 44.628906 299.066406 C 42.421875 294.300781 21.550781 248.28125 41.191406 222.679688 C 48.003906 213.800781 53.484375 215.046875 60.097656 207.734375 " fill-opacity="1" fill-rule="nonzero"/><path fill="#48af1e" d="M 312.949219 95.1875 C 305.765625 88.09375 305.65625 76.488281 312.710938 69.257812 C 319.761719 62.035156 331.308594 61.929688 338.492188 69.019531 C 345.675781 76.117188 345.78125 87.726562 338.726562 94.949219 C 331.675781 102.175781 320.132812 102.285156 312.949219 95.1875 " fill-opacity="1" fill-rule="nonzero"/><path fill="#ffffff" d="M 338.074219 81.121094 L 325.6875 93.808594 C 325.035156 94.480469 323.960938 94.492188 323.292969 93.832031 L 314.582031 85.230469 C 313.914062 84.570312 313.902344 83.492188 314.558594 82.820312 L 326.941406 70.132812 C 327.597656 69.464844 328.667969 69.453125 329.339844 70.113281 L 338.050781 78.714844 C 338.71875 79.375 338.730469 80.453125 338.074219 81.121094 " fill-opacity="1" fill-rule="nonzero"/><path fill="#7d5e31" d="M 328.148438 70.261719 C 328.144531 70.261719 328.144531 70.261719 328.140625 70.261719 C 327.859375 70.265625 327.59375 70.378906 327.394531 70.582031 L 315.011719 83.265625 C 314.601562 83.6875 314.605469 84.367188 315.023438 84.78125 L 323.738281 93.378906 C 323.941406 93.582031 324.21875 93.675781 324.484375 93.6875 C 324.769531 93.683594 325.03125 93.570312 325.230469 93.367188 L 337.613281 80.679688 C 338.023438 80.261719 338.019531 79.582031 337.601562 79.167969 L 328.890625 70.566406 C 328.691406 70.371094 328.429688 70.261719 328.148438 70.261719 Z M 324.476562 94.957031 C 323.859375 94.957031 323.28125 94.71875 322.84375 94.285156 L 314.132812 85.6875 C 313.214844 84.78125 313.203125 83.296875 314.101562 82.378906 L 326.484375 69.691406 C 326.921875 69.246094 327.503906 68.996094 328.128906 68.988281 C 328.773438 68.988281 329.339844 69.222656 329.785156 69.660156 L 338.496094 78.265625 C 339.410156 79.164062 339.421875 80.648438 338.523438 81.570312 L 326.140625 94.257812 C 325.703125 94.703125 325.121094 94.953125 324.496094 94.957031 C 324.492188 94.957031 324.484375 94.957031 324.476562 94.957031 " fill-opacity="1" fill-rule="nonzero"/><path fill="#7d5e31" d="M 318.960938 84.765625 C 318.667969 84.765625 318.40625 84.566406 318.339844 84.265625 C 318.265625 83.925781 318.484375 83.585938 318.828125 83.511719 L 326.730469 81.78125 C 327.074219 81.703125 327.414062 81.921875 327.484375 82.265625 C 327.5625 82.609375 327.34375 82.949219 327.003906 83.023438 L 319.097656 84.753906 C 319.050781 84.761719 319.007812 84.765625 318.960938 84.765625 " fill-opacity="1" fill-rule="nonzero"/><path fill="#7d5e31" d="M 326.898438 83.007812 C 326.859375 83.007812 326.816406 83.003906 326.777344 82.992188 C 326.429688 82.925781 326.207031 82.589844 326.273438 82.246094 L 327.851562 74.265625 C 327.917969 73.921875 328.253906 73.695312 328.597656 73.765625 C 328.941406 73.832031 329.164062 74.167969 329.097656 74.511719 L 327.523438 82.492188 C 327.464844 82.792969 327.195312 83.007812 326.898438 83.007812 " fill-opacity="1" fill-rule="nonzero"/><path fill="#48af1e" d="M 307.972656 52.5625 C 307.972656 61.789062 300.488281 69.273438 291.261719 69.273438 C 282.03125 69.273438 274.546875 61.789062 274.546875 52.5625 C 274.546875 43.332031 282.03125 35.851562 291.261719 35.851562 C 300.488281 35.851562 307.972656 43.332031 307.972656 52.5625 " fill-opacity="1" fill-rule="nonzero"/><path fill="#ffffff" d="M 298.257812 51.195312 L 289.308594 45.128906 C 288.210938 44.386719 286.730469 45.171875 286.730469 46.496094 L 286.730469 58.625 C 286.730469 59.953125 288.210938 60.738281 289.308594 59.992188 L 298.257812 53.929688 C 299.222656 53.273438 299.222656 51.847656 298.257812 51.195312 " fill-opacity="1" fill-rule="nonzero"/><path fill="#ffffff" d="M 286.144531 176.871094 L 14.972656 176.871094 C 8.988281 176.871094 5.007812 181.621094 6.085938 187.480469 L 39.566406 369.566406 C 40.644531 375.429688 46.367188 380.179688 52.355469 380.179688 L 323.527344 380.179688 C 329.511719 380.179688 333.492188 375.429688 332.414062 369.566406 L 298.933594 187.480469 C 297.855469 181.621094 292.132812 176.871094 286.144531 176.871094 " fill-opacity="1" fill-rule="nonzero"/><path fill="#7d5e31" d="M 14.972656 177.507812 C 12.261719 177.507812 9.910156 178.535156 8.355469 180.402344 C 6.808594 182.257812 6.226562 184.734375 6.710938 187.371094 L 40.191406 369.453125 C 41.214844 375.019531 46.671875 379.546875 52.355469 379.546875 L 323.523438 379.546875 C 326.238281 379.546875 328.585938 378.515625 330.140625 376.648438 C 331.6875 374.796875 332.273438 372.320312 331.789062 369.683594 L 298.308594 187.597656 C 297.285156 182.035156 291.828125 177.507812 286.144531 177.507812 Z M 323.523438 380.816406 L 52.355469 380.816406 C 46.085938 380.816406 40.066406 375.820312 38.941406 369.683594 L 5.460938 187.597656 C 4.90625 184.582031 5.585938 181.742188 7.378906 179.589844 C 9.179688 177.425781 11.875 176.238281 14.972656 176.238281 L 286.144531 176.238281 C 292.414062 176.238281 298.429688 181.230469 299.558594 187.371094 L 333.039062 369.453125 C 333.589844 372.46875 332.914062 375.3125 331.121094 377.464844 C 329.316406 379.628906 326.621094 380.816406 323.523438 380.816406 " fill-opacity="1" fill-rule="nonzero"/><path fill="#3d5018" d="M 52.660156 374.238281 C 49.054688 374.238281 45.601562 371.386719 44.957031 367.878906 L 12.03125 188.8125 C 11.386719 185.304688 13.792969 182.453125 17.394531 182.453125 L 285.773438 182.453125 C 289.375 182.453125 292.832031 185.304688 293.476562 188.8125 L 326.402344 367.878906 C 327.046875 371.386719 324.640625 374.238281 321.039062 374.238281 L 52.660156 374.238281 " fill-opacity="1" fill-rule="nonzero"/><path fill="#ffffff" d="M 249.007812 246.480469 L 188.773438 246.480469 C 183.554688 246.480469 180.101562 250.714844 181.0625 255.933594 C 182.019531 261.152344 187.03125 265.386719 192.25 265.386719 L 252.484375 265.386719 C 257.703125 265.386719 261.160156 261.152344 260.195312 255.933594 C 259.238281 250.714844 254.230469 246.480469 249.007812 246.480469 " fill-opacity="1" fill-rule="nonzero"/><path fill="#c1914b" d="M 275.140625 295.683594 L 180.738281 295.683594 L 178.167969 281.710938 L 272.574219 281.710938 L 275.140625 295.683594 " fill-opacity="1" fill-rule="nonzero"/><path fill="#c1914b" d="M 279.316406 318.375 L 184.910156 318.375 L 182.339844 304.402344 L 276.746094 304.402344 L 279.316406 318.375 " fill-opacity="1" fill-rule="nonzero"/><path fill="#ffffff" d="M 120.941406 95.90625 C 118.050781 95.90625 115.535156 97.019531 113.859375 99.03125 C 112.140625 101.097656 111.492188 103.867188 112.039062 106.835938 L 133.183594 221.847656 C 134.316406 228 140.234375 233.003906 146.382812 233.003906 L 216.285156 233.003906 C 219.175781 233.003906 221.691406 231.894531 223.371094 229.878906 C 225.089844 227.816406 225.734375 225.042969 225.191406 222.078125 L 204.042969 107.0625 C 202.910156 100.914062 196.992188 95.90625 190.847656 95.90625 Z M 216.285156 234.273438 L 146.382812 234.273438 C 139.652344 234.273438 133.171875 228.804688 131.933594 222.078125 L 110.785156 107.066406 C 110.171875 103.722656 110.914062 100.578125 112.882812 98.21875 C 114.804688 95.90625 117.667969 94.636719 120.941406 94.636719 L 190.847656 94.636719 C 197.574219 94.636719 204.058594 100.109375 205.296875 106.835938 L 226.441406 221.847656 C 227.058594 225.191406 226.3125 228.335938 224.347656 230.695312 C 222.425781 233.003906 219.5625 234.273438 216.285156 234.273438 " fill-opacity="1" fill-rule="nonzero"/><path fill="#48af1e" d="M 216.285156 234.273438 L 213.417969 234.273438 C 213.070312 234.273438 212.785156 233.992188 212.785156 233.640625 C 212.785156 233.289062 213.070312 233.003906 213.417969 233.003906 L 216.285156 233.003906 C 219.175781 233.003906 221.691406 231.894531 223.367188 229.882812 C 225.089844 227.816406 225.734375 225.046875 225.1875 222.078125 L 220.085938 194.324219 C 220.023438 193.976562 220.25 193.644531 220.597656 193.582031 C 220.945312 193.515625 221.273438 193.746094 221.339844 194.09375 L 226.441406 221.847656 C 227.054688 225.191406 226.3125 228.335938 224.347656 230.695312 C 222.421875 233.003906 219.558594 234.273438 216.285156 234.273438 " fill-opacity="1" fill-rule="nonzero"/><path fill="#48af1e" d="M 215.617188 167.140625 C 215.320312 167.140625 215.046875 166.925781 214.992188 166.621094 L 204.042969 107.066406 C 202.910156 100.914062 196.992188 95.90625 190.847656 95.90625 L 120.941406 95.90625 C 118.050781 95.90625 115.535156 97.019531 113.859375 99.03125 C 112.140625 101.097656 111.492188 103.867188 112.039062 106.835938 L 117.316406 135.554688 C 117.382812 135.902344 117.152344 136.230469 116.808594 136.296875 C 116.460938 136.359375 116.128906 136.128906 116.066406 135.785156 L 110.785156 107.066406 C 110.171875 103.722656 110.914062 100.578125 112.882812 98.21875 C 114.804688 95.90625 117.667969 94.636719 120.941406 94.636719 L 190.847656 94.636719 C 197.574219 94.636719 204.058594 100.109375 205.296875 106.835938 L 216.246094 166.390625 C 216.308594 166.738281 216.082031 167.066406 215.734375 167.128906 C 215.695312 167.140625 215.65625 167.140625 215.617188 167.140625 " fill-opacity="1" fill-rule="nonzero"/><path fill="#ffffff" d="M 140.335938 131.449219 C 138.074219 119.15625 146.199219 109.1875 158.484375 109.1875 C 170.773438 109.1875 182.566406 119.15625 184.824219 131.449219 C 187.085938 143.746094 178.960938 153.714844 166.675781 153.714844 C 154.390625 153.714844 142.597656 143.746094 140.335938 131.449219 " fill-opacity="1" fill-rule="nonzero"/><path fill="#c1914b" d="M 166.675781 154.355469 C 154.117188 154.355469 142.019531 144.132812 139.710938 131.566406 C 139.210938 128.867188 139.191406 126.21875 139.648438 123.699219 C 139.710938 123.355469 140.042969 123.125 140.386719 123.1875 C 140.730469 123.25 140.964844 123.578125 140.898438 123.925781 C 140.472656 126.292969 140.492188 128.785156 140.960938 131.335938 C 143.164062 143.324219 154.699219 153.078125 166.675781 153.078125 C 172.351562 153.078125 177.296875 150.894531 180.601562 146.925781 C 183.996094 142.851562 185.273438 137.398438 184.199219 131.566406 C 181.996094 119.578125 170.460938 109.824219 158.484375 109.824219 C 152.03125 109.824219 146.503906 112.679688 143.328125 117.65625 C 143.140625 117.957031 142.746094 118.039062 142.453125 117.851562 C 142.15625 117.664062 142.066406 117.269531 142.257812 116.976562 C 145.671875 111.621094 151.585938 108.550781 158.484375 108.550781 C 171.042969 108.550781 183.140625 118.773438 185.449219 131.335938 C 186.589844 137.546875 185.21875 143.371094 181.578125 147.738281 C 178.027344 152.003906 172.734375 154.355469 166.675781 154.355469 " fill-opacity="1" fill-rule="nonzero"/><path fill="#c1914b" d="M 159.546875 116.808594 C 159.546875 116.808594 154.855469 113.421875 150.8125 120.496094 C 147.242188 126.742188 154.3125 132.335938 152.996094 136.222656 C 151.679688 140.113281 145.183594 142.230469 145.183594 142.230469 C 145.183594 142.230469 148.203125 146.648438 151.296875 148.59375 L 180.339844 148.59375 C 180.339844 148.59375 185.140625 142.054688 184.796875 140.199219 C 184.796875 140.199219 178.292969 139.847656 176.828125 134.277344 C 175.363281 128.714844 177.175781 125.242188 170.523438 118.953125 C 163.628906 112.441406 159.546875 116.808594 159.546875 116.808594 " fill-opacity="1" fill-rule="nonzero"/><path fill="#3d5018" d="M 150.296875 147.644531 C 154.972656 151.40625 160.765625 153.714844 166.675781 153.714844 C 172.582031 153.714844 177.523438 151.40625 180.816406 147.644531 C 175.945312 146.214844 170.621094 145.410156 165.148438 145.410156 C 159.671875 145.410156 154.644531 146.214844 150.296875 147.644531 " fill-opacity="1" fill-rule="nonzero"/><path fill="#c1914b" d="M 151.652344 147.886719 C 156.199219 151.242188 161.492188 153.078125 166.675781 153.078125 C 171.808594 153.078125 176.371094 151.273438 179.644531 147.972656 C 174.953125 146.691406 170.082031 146.046875 165.148438 146.046875 C 160.320312 146.046875 155.789062 146.664062 151.652344 147.886719 Z M 166.675781 154.351562 C 160.835938 154.351562 154.878906 152.144531 149.898438 148.136719 C 149.71875 147.992188 149.628906 147.757812 149.671875 147.527344 C 149.714844 147.300781 149.875 147.113281 150.097656 147.039062 C 154.667969 145.535156 159.730469 144.773438 165.148438 144.773438 C 170.554688 144.773438 175.886719 145.535156 180.996094 147.03125 C 181.203125 147.09375 181.367188 147.253906 181.429688 147.464844 C 181.488281 147.671875 181.4375 147.898438 181.296875 148.0625 C 177.746094 152.117188 172.554688 154.351562 166.675781 154.351562 " fill-opacity="1" fill-rule="nonzero"/><path fill="#ffffff" d="M 165.972656 149.175781 C 164.03125 149.175781 162.167969 147.597656 161.8125 145.660156 L 158.519531 127.742188 L 165.539062 127.742188 L 168.835938 145.660156 C 169.191406 147.597656 167.910156 149.175781 165.972656 149.175781 " fill-opacity="1" fill-rule="nonzero"/><path fill="#c1914b" d="M 159.285156 128.375 L 162.4375 145.542969 C 162.742188 147.195312 164.328125 148.535156 165.972656 148.535156 C 166.703125 148.535156 167.339844 148.261719 167.757812 147.757812 C 168.1875 147.238281 168.351562 146.535156 168.210938 145.773438 L 165.011719 128.375 Z M 165.972656 149.808594 C 163.742188 149.808594 161.597656 148 161.1875 145.773438 L 157.894531 127.855469 C 157.859375 127.667969 157.910156 127.480469 158.03125 127.332031 C 158.152344 127.191406 158.332031 127.105469 158.519531 127.105469 L 165.539062 127.105469 C 165.847656 127.105469 166.113281 127.324219 166.167969 127.625 L 169.460938 145.542969 C 169.667969 146.683594 169.414062 147.757812 168.734375 148.574219 C 168.070312 149.371094 167.089844 149.808594 165.972656 149.808594 " fill-opacity="1" fill-rule="nonzero"/><path fill="#ffffff" d="M 164.421875 140.199219 C 168.371094 140.199219 170.984375 136.992188 170.257812 133.042969 L 169.484375 128.828125 C 168.78125 125.007812 165.117188 121.910156 161.300781 121.910156 L 153.910156 121.910156 L 155.957031 133.042969 C 156.488281 135.9375 158.667969 138.433594 161.347656 139.558594 L 164.421875 140.199219 " fill-opacity="1" fill-rule="nonzero"/><path fill="#c1914b" d="M 164.421875 140.835938 C 164.070312 140.835938 163.785156 140.550781 163.785156 140.199219 C 163.785156 139.847656 164.070312 139.5625 164.421875 139.5625 C 166.117188 139.5625 167.589844 138.914062 168.566406 137.738281 C 169.574219 136.53125 169.953125 134.902344 169.628906 133.15625 L 168.855469 128.941406 C 168.207031 125.417969 164.820312 122.546875 161.300781 122.546875 L 154.675781 122.546875 L 156.582031 132.929688 C 157.058594 135.519531 159.027344 137.894531 161.59375 138.972656 C 161.917969 139.109375 162.066406 139.480469 161.929688 139.804688 C 161.796875 140.128906 161.421875 140.28125 161.101562 140.144531 C 158.148438 138.90625 155.882812 136.160156 155.332031 133.15625 L 153.285156 122.023438 C 153.25 121.839844 153.300781 121.648438 153.421875 121.503906 C 153.542969 121.359375 153.722656 121.273438 153.910156 121.273438 L 161.300781 121.273438 C 165.402344 121.273438 169.355469 124.609375 170.109375 128.710938 L 170.882812 132.929688 C 171.273438 135.050781 170.800781 137.050781 169.546875 138.554688 C 168.320312 140.023438 166.5 140.835938 164.421875 140.835938 " fill-opacity="1" fill-rule="nonzero"/><path fill="#c1914b" d="M 161.550781 122.175781 L 155.507812 129.152344 L 154.175781 121.910156 C 154.175781 121.910156 161.582031 122.351562 161.550781 122.175781 " fill-opacity="1" fill-rule="nonzero"/><path fill="#c1914b" d="M 199.132812 193.875 L 143.640625 193.875 C 142.363281 193.875 141.132812 192.839844 140.898438 191.558594 C 140.664062 190.277344 141.507812 189.242188 142.789062 189.242188 L 198.28125 189.242188 C 199.5625 189.242188 200.789062 190.277344 201.023438 191.558594 C 201.257812 192.839844 200.410156 193.875 199.132812 193.875 " fill-opacity="1" fill-rule="nonzero"/><path fill="#c1914b" d="M 210.824219 206.003906 L 145.445312 206.003906 C 144.164062 206.003906 142.9375 204.964844 142.703125 203.6875 L 142.703125 203.683594 C 142.46875 202.40625 143.3125 201.367188 144.59375 201.367188 L 209.972656 201.367188 C 211.25 201.367188 212.480469 202.40625 212.714844 203.683594 L 212.714844 203.6875 C 212.949219 204.964844 212.101562 206.003906 210.824219 206.003906 " fill-opacity="1" fill-rule="nonzero"/><path fill="#3d5018" d="M 186.886719 172.21875 L 158.464844 172.21875 C 156.574219 172.21875 154.761719 170.6875 154.414062 168.796875 L 154.414062 168.792969 C 154.066406 166.90625 155.316406 165.371094 157.207031 165.371094 L 185.625 165.371094 C 187.515625 165.371094 189.332031 166.90625 189.679688 168.792969 L 189.679688 168.796875 C 190.027344 170.6875 188.773438 172.21875 186.886719 172.21875 " fill-opacity="1" fill-rule="nonzero"/><path fill="#48af1e" d="M 104.039062 49.472656 C 103.210938 49.472656 21.300781 49.503906 20.042969 49.5625 C 17.066406 49.921875 14.484375 51.375 12.804688 53.652344 C 11.035156 56.054688 10.394531 59.1875 11 62.476562 L 35.886719 197.839844 C 37.230469 205.136719 44.253906 211.074219 51.546875 211.074219 L 133.988281 211.074219 C 137.425781 211.074219 140.421875 209.753906 142.417969 207.355469 C 144.464844 204.898438 145.238281 201.597656 144.585938 198.070312 L 119.699219 62.707031 C 118.355469 55.40625 111.332031 49.472656 104.039062 49.472656 Z M 133.988281 212.347656 L 51.546875 212.347656 C 43.671875 212.347656 36.085938 205.941406 34.636719 198.070312 L 9.746094 62.707031 C 9.078125 59.070312 9.800781 55.585938 11.78125 52.898438 C 13.671875 50.335938 16.5625 48.699219 19.925781 48.296875 C 20.453125 48.234375 90.085938 48.203125 104.039062 48.199219 C 111.917969 48.199219 119.503906 54.601562 120.949219 62.476562 L 145.835938 197.839844 C 146.554688 201.746094 145.6875 205.414062 143.394531 208.167969 C 141.152344 210.863281 137.808594 212.347656 133.988281 212.347656 " fill-opacity="1" fill-rule="nonzero"/><path fill="#48af1e" d="M 25.070312 143.160156 C 24.769531 143.160156 24.5 142.945312 24.445312 142.640625 L 9.746094 62.707031 C 9.078125 59.070312 9.800781 55.585938 11.78125 52.898438 C 13.671875 50.335938 16.5625 48.699219 19.925781 48.296875 C 20.453125 48.234375 90.085938 48.203125 104.039062 48.199219 C 111.917969 48.199219 119.503906 54.601562 120.949219 62.476562 L 125.824219 88.980469 C 125.886719 89.324219 125.65625 89.65625 125.3125 89.71875 C 124.964844 89.785156 124.636719 89.554688 124.570312 89.210938 L 119.699219 62.707031 C 118.355469 55.40625 111.332031 49.472656 104.039062 49.472656 C 103.210938 49.472656 21.300781 49.503906 20.042969 49.5625 C 17.066406 49.921875 14.484375 51.375 12.804688 53.652344 C 11.035156 56.058594 10.394531 59.1875 11 62.476562 L 25.695312 142.410156 C 25.757812 142.753906 25.53125 143.089844 25.1875 143.152344 C 25.148438 143.15625 25.109375 143.160156 25.070312 143.160156 " fill-opacity="1" fill-rule="nonzero"/><path fill="#ffffff" d="M 97.285156 212.347656 L 64.070312 212.347656 C 63.71875 212.347656 63.433594 212.0625 63.433594 211.710938 C 63.433594 211.359375 63.71875 211.074219 64.070312 211.074219 L 97.285156 211.074219 C 97.636719 211.074219 97.921875 211.359375 97.921875 211.710938 C 97.921875 212.0625 97.636719 212.347656 97.285156 212.347656 " fill-opacity="1" fill-rule="nonzero"/><path fill="#3d5018" d="M 91.875 138.039062 L 69.265625 138.039062 C 67.761719 138.039062 66.320312 136.820312 66.042969 135.316406 C 65.765625 133.8125 66.761719 132.597656 68.265625 132.597656 L 90.875 132.597656 C 92.375 132.597656 93.820312 133.8125 94.09375 135.316406 C 94.371094 136.820312 93.378906 138.039062 91.875 138.039062 " fill-opacity="1" fill-rule="nonzero"/><path fill="#3d5018" d="M 121.746094 152.96875 L 44.882812 152.96875 C 43.378906 152.96875 41.9375 151.746094 41.660156 150.246094 C 41.382812 148.742188 42.378906 147.523438 43.882812 147.523438 L 120.746094 147.523438 C 122.25 147.523438 123.691406 148.742188 123.96875 150.246094 C 124.242188 151.746094 123.25 152.96875 121.746094 152.96875 " fill-opacity="1" fill-rule="nonzero"/><path fill="#3d5018" d="M 123.671875 163.445312 L 46.808594 163.445312 C 45.304688 163.445312 43.863281 162.226562 43.585938 160.722656 C 43.3125 159.222656 44.304688 158 45.808594 158 L 122.671875 158 C 124.175781 158 125.617188 159.222656 125.894531 160.722656 C 126.171875 162.226562 125.175781 163.445312 123.671875 163.445312 " fill-opacity="1" fill-rule="nonzero"/><path fill="#3d5018" d="M 54.917969 108.707031 C 60.425781 113.140625 67.25 115.859375 74.210938 115.859375 C 81.171875 115.859375 86.996094 113.140625 90.875 108.707031 C 85.136719 107.027344 78.863281 106.082031 72.414062 106.082031 C 65.964844 106.082031 60.039062 107.027344 54.917969 108.707031 " fill-opacity="1" fill-rule="nonzero"/><path fill="#3d5018" d="M 78.625 91 L 79.570312 82.753906 C 79.929688 79.632812 78.066406 76.273438 75.007812 74.511719 C 73.6875 73.75 72.238281 73.347656 70.832031 73.347656 L 62.5625 73.347656 C 60.714844 73.347656 59.066406 74.042969 57.945312 75.300781 L 57.570312 75.71875 C 55.785156 77.714844 55.605469 80.800781 57.105469 83.5625 L 61.210938 91.105469 L 78.625 91 " fill-opacity="1" fill-rule="nonzero"/><path fill="#ffffff" d="M 67.6875 77.21875 L 58.535156 77.21875 L 61.027344 90.78125 C 61.542969 93.585938 63.1875 96.082031 65.863281 97.695312 L 67.234375 105.167969 C 67.777344 108.117188 70.609375 110.511719 73.5625 110.511719 C 76.511719 110.511719 78.464844 108.117188 77.921875 105.167969 L 76.585938 97.902344 C 78.269531 96.296875 79.378906 93.703125 78.839844 90.78125 L 77.882812 85.585938 C 77.019531 80.871094 72.398438 77.21875 67.6875 77.21875 " fill-opacity="1" fill-rule="nonzero"/><path fill="#c1914b" d="M 73.382812 111.148438 C 70.144531 111.148438 67.023438 108.515625 66.429688 105.28125 L 65.070312 97.878906 C 65.003906 97.535156 65.234375 97.203125 65.578125 97.140625 C 65.925781 97.074219 66.257812 97.304688 66.320312 97.652344 L 67.679688 105.050781 C 68.171875 107.710938 70.726562 109.875 73.382812 109.875 C 74.601562 109.875 75.660156 109.410156 76.363281 108.570312 C 77.082031 107.703125 77.351562 106.535156 77.121094 105.28125 L 75.816406 98.1875 C 75.753906 97.839844 75.980469 97.511719 76.328125 97.445312 C 76.675781 97.382812 77.003906 97.609375 77.070312 97.957031 L 78.371094 105.050781 C 78.671875 106.683594 78.304688 108.222656 77.339844 109.382812 C 76.390625 110.519531 74.988281 111.148438 73.382812 111.148438 " fill-opacity="1" fill-rule="nonzero"/><path fill="#3d5018" d="M 71.507812 100.246094 C 71.15625 100.246094 70.875 99.960938 70.875 99.609375 C 70.875 99.257812 71.15625 98.972656 71.507812 98.972656 C 73.648438 98.972656 75.503906 98.15625 76.742188 96.667969 C 78.011719 95.140625 78.488281 93.09375 78.085938 90.898438 L 77.128906 85.699219 C 76.316406 81.28125 72.070312 77.6875 67.65625 77.6875 L 59.296875 77.6875 L 61.683594 90.667969 C 62.28125 93.914062 64.742188 96.882812 67.957031 98.230469 C 68.28125 98.367188 68.433594 98.742188 68.296875 99.066406 C 68.160156 99.386719 67.789062 99.542969 67.464844 99.40625 C 63.867188 97.894531 61.105469 94.554688 60.433594 90.898438 L 57.910156 77.167969 C 57.875 76.980469 57.925781 76.792969 58.046875 76.644531 C 58.167969 76.503906 58.347656 76.417969 58.535156 76.417969 L 67.65625 76.417969 C 72.652344 76.417969 77.464844 80.476562 78.382812 85.46875 L 79.335938 90.667969 C 79.808594 93.242188 79.234375 95.664062 77.71875 97.484375 C 76.238281 99.265625 74.03125 100.246094 71.507812 100.246094 " fill-opacity="1" fill-rule="nonzero"/><path fill="#3d5018" d="M 73.058594 76.722656 L 60.507812 85.984375 L 58.863281 77.050781 C 58.863281 77.050781 73.101562 76.941406 73.058594 76.722656 " fill-opacity="1" fill-rule="nonzero"/><path fill="#c1914b" d="M 74.183594 116.472656 C 67.539062 116.472656 60.667969 114.015625 54.871094 109.480469 C 42.140625 99.523438 38.28125 82.523438 46.265625 71.578125 C 53.886719 61.132812 69.730469 59.835938 82.332031 68.625 C 82.621094 68.828125 82.691406 69.222656 82.488281 69.511719 C 82.289062 69.800781 81.890625 69.871094 81.605469 69.671875 C 69.574219 61.277344 54.5 62.445312 47.292969 72.328125 C 39.707031 82.722656 43.457031 98.941406 55.652344 108.476562 C 62.238281 113.628906 70.238281 115.996094 77.605469 114.964844 C 83.34375 114.167969 88.265625 111.3125 91.464844 106.929688 C 95.429688 101.496094 96.445312 94.171875 94.257812 86.828125 C 94.160156 86.492188 94.351562 86.136719 94.6875 86.039062 C 95.023438 85.9375 95.378906 86.128906 95.480469 86.464844 C 97.78125 94.191406 96.691406 101.921875 92.492188 107.675781 C 89.089844 112.339844 83.867188 115.378906 77.78125 116.226562 C 76.597656 116.390625 75.390625 116.472656 74.183594 116.472656 " fill-opacity="1" fill-rule="nonzero"/><path fill="#ffffff" d="M 147.296875 348.816406 C 148.726562 356.597656 144.34375 362.910156 137.5 362.910156 L 63.257812 362.910156 C 56.417969 362.910156 49.710938 356.597656 48.28125 348.816406 L 21.761719 204.585938 C 20.328125 196.800781 24.714844 190.492188 31.558594 190.492188 L 105.800781 190.492188 C 112.640625 190.492188 119.347656 196.800781 120.777344 204.585938 L 147.296875 348.816406 " fill-opacity="1" fill-rule="nonzero"/><path fill="#7d5e31" d="M 137.5 363.546875 L 63.257812 363.546875 C 56.136719 363.546875 49.136719 356.988281 47.652344 348.929688 L 21.136719 204.703125 C 20.347656 200.417969 21.246094 196.339844 23.601562 193.511719 C 25.566406 191.152344 28.390625 189.855469 31.554688 189.855469 L 105.800781 189.855469 C 112.921875 189.855469 119.921875 196.410156 121.402344 204.472656 L 135.847656 283.027344 C 135.914062 283.375 135.683594 283.707031 135.339844 283.769531 C 134.988281 283.832031 134.660156 283.605469 134.597656 283.257812 L 120.152344 204.703125 C 118.777344 197.21875 112.339844 191.125 105.800781 191.125 L 31.554688 191.125 C 28.773438 191.125 26.296875 192.261719 24.578125 194.328125 C 22.464844 196.863281 21.667969 200.5625 22.386719 204.472656 L 48.90625 348.699219 C 50.28125 356.183594 56.71875 362.273438 63.257812 362.273438 L 137.5 362.273438 C 140.285156 362.273438 142.761719 361.136719 144.480469 359.074219 C 146.59375 356.539062 147.390625 352.839844 146.671875 348.929688 L 137.90625 301.257812 C 137.84375 300.910156 138.070312 300.582031 138.417969 300.515625 C 138.765625 300.453125 139.09375 300.683594 139.160156 301.027344 L 147.921875 348.699219 C 148.710938 352.984375 147.8125 357.0625 145.457031 359.890625 C 143.492188 362.246094 140.667969 363.546875 137.5 363.546875 " fill-opacity="1" fill-rule="nonzero"/><path fill="#3d5018" d="M 92.929688 270.46875 L 72.527344 270.46875 C 71.167969 270.46875 69.867188 269.371094 69.617188 268.015625 C 69.367188 266.660156 70.265625 265.558594 71.621094 265.558594 L 92.027344 265.558594 C 93.382812 265.558594 94.683594 266.660156 94.933594 268.015625 C 95.183594 269.371094 94.285156 270.46875 92.929688 270.46875 " fill-opacity="1" fill-rule="nonzero"/><path fill="#c1914b" d="M 120.0625 284.882812 L 50.695312 284.882812 C 49.335938 284.882812 48.035156 283.785156 47.785156 282.429688 C 47.535156 281.070312 48.433594 279.972656 49.789062 279.972656 L 119.160156 279.972656 C 120.515625 279.972656 121.816406 281.070312 122.066406 282.429688 C 122.316406 283.785156 121.417969 284.882812 120.0625 284.882812 " fill-opacity="1" fill-rule="nonzero"/><path fill="#c1914b" d="M 122.03125 295.59375 L 52.664062 295.59375 C 51.304688 295.59375 50.003906 294.492188 49.753906 293.136719 C 49.503906 291.78125 50.402344 290.679688 51.757812 290.679688 L 121.128906 290.679688 C 122.484375 290.679688 123.785156 291.78125 124.035156 293.136719 C 124.285156 294.492188 123.386719 295.59375 122.03125 295.59375 " fill-opacity="1" fill-rule="nonzero"/><path fill="#c1914b" d="M 116.03125 327.894531 L 58.421875 327.894531 C 57.066406 327.894531 55.765625 326.792969 55.515625 325.4375 C 55.265625 324.082031 56.164062 322.980469 57.519531 322.980469 L 115.128906 322.980469 C 116.484375 322.980469 117.785156 324.082031 118.035156 325.4375 C 118.285156 326.792969 117.386719 327.894531 116.03125 327.894531 " fill-opacity="1" fill-rule="nonzero"/><path fill="#c1914b" d="M 129.761719 338.601562 L 60.394531 338.601562 C 59.035156 338.601562 57.734375 337.503906 57.484375 336.148438 C 57.234375 334.789062 58.132812 333.691406 59.488281 333.691406 L 128.855469 333.691406 C 130.214844 333.691406 131.515625 334.789062 131.765625 336.148438 C 132.015625 337.503906 131.117188 338.601562 129.761719 338.601562 " fill-opacity="1" fill-rule="nonzero"/><path fill="#c1914b" d="M 104.824219 348.480469 L 62.207031 348.480469 C 60.851562 348.480469 59.550781 347.378906 59.300781 346.023438 C 59.050781 344.667969 59.949219 343.566406 61.304688 343.566406 L 103.921875 343.566406 C 105.277344 343.566406 106.578125 344.667969 106.828125 346.023438 C 107.078125 347.378906 106.179688 348.480469 104.824219 348.480469 " fill-opacity="1" fill-rule="nonzero"/><path fill="#c1914b" d="M 101.066406 306.300781 L 54.632812 306.300781 C 53.273438 306.300781 51.972656 305.203125 51.722656 303.847656 C 51.476562 302.488281 52.371094 301.390625 53.726562 301.390625 L 100.164062 301.390625 C 101.519531 301.390625 102.820312 302.488281 103.070312 303.847656 C 103.320312 305.203125 102.421875 306.300781 101.066406 306.300781 " fill-opacity="1" fill-rule="nonzero"/><path fill="#c1914b" d="M 125.96875 317.007812 L 56.601562 317.007812 C 55.242188 317.007812 53.941406 315.910156 53.691406 314.554688 C 53.445312 313.195312 54.339844 312.097656 55.695312 312.097656 L 125.066406 312.097656 C 126.421875 312.097656 127.722656 313.195312 127.972656 314.554688 C 128.222656 315.910156 127.324219 317.007812 125.96875 317.007812 " fill-opacity="1" fill-rule="nonzero"/><path fill="#7d5e31" d="M 68.851562 239.554688 C 64.148438 239.554688 59.835938 235.144531 60.132812 230.582031 C 60.621094 223.082031 62.933594 213.394531 71.484375 212.023438 C 80.398438 210.597656 87.414062 221.789062 91.402344 230.332031 C 93.5625 234.960938 90.90625 239.554688 86.097656 239.554688 L 68.851562 239.554688 " fill-opacity="1" fill-rule="nonzero"/><path fill="#48af1e" d="M 78.921875 254.34375 C 85.679688 254.179688 89.953125 252.71875 93.996094 248.101562 C 88.015625 246.351562 85.207031 246.273438 78.484375 246.273438 C 71.765625 246.273438 67.746094 246.609375 62.414062 248.363281 C 62.414062 248.363281 69.972656 254.5625 78.921875 254.34375 " fill-opacity="1" fill-rule="nonzero"/><path fill="#7d5e31" d="M 62.292969 249.023438 C 62.015625 249.023438 61.761719 248.84375 61.683594 248.5625 C 61.585938 248.226562 61.785156 247.871094 62.121094 247.777344 C 67.175781 246.355469 72.683594 245.636719 78.484375 245.636719 C 83.707031 245.636719 88.921875 246.222656 93.984375 247.378906 C 94.328125 247.457031 94.539062 247.796875 94.460938 248.140625 C 94.386719 248.484375 94.046875 248.695312 93.703125 248.621094 C 88.734375 247.484375 83.613281 246.910156 78.484375 246.910156 C 72.800781 246.910156 67.410156 247.613281 62.464844 249.003906 C 62.410156 249.019531 62.351562 249.023438 62.292969 249.023438 " fill-opacity="1" fill-rule="nonzero"/><path fill="#ffffff" d="M 79.523438 251.027344 C 77.140625 251.027344 74.859375 249.097656 74.417969 246.71875 L 69.675781 220.914062 L 78.296875 220.914062 L 83.039062 246.71875 C 83.476562 249.097656 81.902344 251.027344 79.523438 251.027344 " fill-opacity="1" fill-rule="nonzero"/><path fill="#7d5e31" d="M 70.4375 221.546875 L 75.046875 246.601562 C 75.429688 248.691406 77.4375 250.390625 79.523438 250.390625 C 80.46875 250.390625 81.289062 250.035156 81.828125 249.382812 C 82.386719 248.714844 82.59375 247.808594 82.414062 246.832031 L 77.765625 221.546875 Z M 79.523438 251.664062 C 76.855469 251.664062 74.285156 249.496094 73.792969 246.832031 L 69.050781 221.027344 C 69.015625 220.839844 69.066406 220.648438 69.1875 220.503906 C 69.308594 220.359375 69.484375 220.273438 69.675781 220.273438 L 78.296875 220.273438 C 78.601562 220.273438 78.867188 220.496094 78.921875 220.796875 L 83.664062 246.601562 C 83.914062 247.957031 83.609375 249.234375 82.804688 250.195312 C 82.019531 251.140625 80.851562 251.664062 79.523438 251.664062 " fill-opacity="1" fill-rule="nonzero"/><path fill="#ffffff" d="M 73.429688 235.410156 C 70.382812 234.027344 67.875 230.96875 67.222656 227.414062 L 66.378906 222.832031 C 65.457031 217.820312 68.453125 213.757812 73.066406 213.757812 C 77.382812 213.757812 81.578125 217.558594 82.441406 222.242188 L 83.390625 227.414062 C 84.28125 232.261719 81.386719 236.191406 76.921875 236.191406 L 73.429688 235.410156 " fill-opacity="1" fill-rule="nonzero"/><path fill="#7d5e31" d="M 76.921875 236.828125 C 76.570312 236.828125 76.285156 236.542969 76.285156 236.191406 C 76.285156 235.84375 76.570312 235.558594 76.921875 235.558594 C 78.738281 235.558594 80.34375 234.832031 81.441406 233.515625 C 82.703125 232 83.1875 229.816406 82.765625 227.527344 L 81.816406 222.359375 C 81.007812 217.96875 77.082031 214.394531 73.066406 214.394531 C 71.179688 214.394531 69.515625 215.148438 68.378906 216.511719 C 67.070312 218.082031 66.570312 220.347656 67.003906 222.714844 L 67.847656 227.300781 C 68.441406 230.535156 70.738281 233.488281 73.691406 234.828125 C 74.011719 234.972656 74.15625 235.351562 74.011719 235.671875 C 73.863281 235.992188 73.488281 236.132812 73.167969 235.988281 C 69.84375 234.480469 67.265625 231.160156 66.597656 227.527344 L 65.753906 222.945312 C 65.25 220.203125 65.851562 217.5625 67.402344 215.699219 C 68.785156 214.035156 70.796875 213.125 73.066406 213.125 C 77.667969 213.125 82.152344 217.164062 83.066406 222.128906 L 84.015625 227.300781 C 84.503906 229.960938 83.921875 232.523438 82.417969 234.328125 C 81.074219 235.941406 79.125 236.828125 76.921875 236.828125 " fill-opacity="1" fill-rule="nonzero"/><path fill="#7d5e31" d="M 65.867188 220.367188 L 82.664062 220.367188 C 82.664062 220.367188 81.71875 217.054688 78.304688 214.835938 C 75.402344 212.949219 71.957031 212.765625 69.296875 214.070312 C 67.492188 214.953125 65.753906 216.539062 65.898438 219.371094 L 65.867188 220.367188 " fill-opacity="1" fill-rule="nonzero"/><path fill="#7d5e31" d="M 75.71875 231.199219 C 74.671875 231.199219 73.703125 230.78125 72.988281 230.019531 C 72.746094 229.761719 72.757812 229.359375 73.015625 229.117188 C 73.269531 228.878906 73.671875 228.890625 73.914062 229.144531 C 74.386719 229.652344 75.027344 229.929688 75.71875 229.929688 C 76.410156 229.929688 77.054688 229.652344 77.527344 229.144531 C 77.769531 228.890625 78.171875 228.875 78.425781 229.121094 C 78.683594 229.359375 78.695312 229.761719 78.453125 230.019531 C 77.738281 230.78125 76.765625 231.199219 75.71875 231.199219 " fill-opacity="1" fill-rule="nonzero"/><path fill="#7d5e31" d="M 79.058594 254.910156 C 71.765625 254.910156 63.96875 251.699219 58.011719 245.550781 C 52.445312 239.8125 49.375 232.410156 49.582031 225.246094 C 49.746094 219.597656 51.988281 214.515625 55.886719 210.933594 C 65.046875 202.527344 80.898438 204.355469 91.226562 215.007812 C 94.65625 218.546875 97.183594 222.769531 98.535156 227.21875 C 98.636719 227.554688 98.445312 227.910156 98.109375 228.011719 C 97.777344 228.113281 97.417969 227.921875 97.316406 227.585938 C 96.023438 223.332031 93.601562 219.285156 90.3125 215.890625 C 80.460938 205.730469 65.402344 203.921875 56.75 211.871094 C 53.101562 215.214844 51.007812 219.980469 50.855469 225.285156 C 50.65625 232.105469 53.597656 239.171875 58.921875 244.664062 C 68.777344 254.832031 83.832031 256.636719 92.488281 248.6875 C 96.207031 245.273438 98.304688 240.402344 98.390625 234.976562 C 98.394531 234.628906 98.675781 234.351562 99.023438 234.351562 C 99.027344 234.351562 99.03125 234.351562 99.035156 234.351562 C 99.386719 234.355469 99.664062 234.644531 99.660156 234.996094 C 99.570312 240.777344 97.328125 245.972656 93.347656 249.628906 C 89.476562 253.183594 84.402344 254.910156 79.058594 254.910156 " fill-opacity="1" fill-rule="nonzero"/><path fill="#48af1e" d="M 197.589844 288.699219 C 197.589844 290.179688 196.386719 291.382812 194.902344 291.382812 C 193.417969 291.382812 192.21875 290.179688 192.21875 288.699219 C 192.21875 287.214844 193.417969 286.011719 194.902344 286.011719 C 196.386719 286.011719 197.589844 287.214844 197.589844 288.699219 " fill-opacity="1" fill-rule="nonzero"/><path fill="#48af1e" d="M 207.765625 288.699219 C 207.765625 290.179688 206.5625 291.382812 205.078125 291.382812 C 203.597656 291.382812 202.394531 290.179688 202.394531 288.699219 C 202.394531 287.214844 203.597656 286.011719 205.078125 286.011719 C 206.5625 286.011719 207.765625 287.214844 207.765625 288.699219 " fill-opacity="1" fill-rule="nonzero"/><path fill="#48af1e" d="M 217.9375 288.699219 C 217.9375 290.179688 216.738281 291.382812 215.253906 291.382812 C 213.773438 291.382812 212.570312 290.179688 212.570312 288.699219 C 212.570312 287.214844 213.773438 286.011719 215.253906 286.011719 C 216.738281 286.011719 217.9375 287.214844 217.9375 288.699219 " fill-opacity="1" fill-rule="nonzero"/><path fill="#48af1e" d="M 228.117188 288.699219 C 228.117188 290.179688 226.914062 291.382812 225.429688 291.382812 C 223.945312 291.382812 222.746094 290.179688 222.746094 288.699219 C 222.746094 287.214844 223.945312 286.011719 225.429688 286.011719 C 226.914062 286.011719 228.117188 287.214844 228.117188 288.699219 " fill-opacity="1" fill-rule="nonzero"/><path fill="#48af1e" d="M 202.675781 311.210938 C 202.675781 312.699219 201.472656 313.898438 199.992188 313.898438 C 198.507812 313.898438 197.308594 312.699219 197.308594 311.210938 C 197.308594 309.730469 198.507812 308.527344 199.992188 308.527344 C 201.472656 308.527344 202.675781 309.730469 202.675781 311.210938 " fill-opacity="1" fill-rule="nonzero"/><path fill="#48af1e" d="M 212.851562 311.210938 C 212.851562 312.699219 211.648438 313.898438 210.167969 313.898438 C 208.683594 313.898438 207.480469 312.699219 207.480469 311.210938 C 207.480469 309.730469 208.683594 308.527344 210.167969 308.527344 C 211.648438 308.527344 212.851562 309.730469 212.851562 311.210938 " fill-opacity="1" fill-rule="nonzero"/><path fill="#48af1e" d="M 223.027344 311.210938 C 223.027344 312.699219 221.824219 313.898438 220.339844 313.898438 C 218.859375 313.898438 217.65625 312.699219 217.65625 311.210938 C 217.65625 309.730469 218.859375 308.527344 220.339844 308.527344 C 221.824219 308.527344 223.027344 309.730469 223.027344 311.210938 " fill-opacity="1" fill-rule="nonzero"/><path fill="#48af1e" d="M 233.203125 311.210938 C 233.203125 312.699219 232 313.898438 230.519531 313.898438 C 229.035156 313.898438 227.832031 312.699219 227.832031 311.210938 C 227.832031 309.730469 229.035156 308.527344 230.519531 308.527344 C 232 308.527344 233.203125 309.730469 233.203125 311.210938 " fill-opacity="1" fill-rule="nonzero"/><path fill="#7d5e31" d="M 241.0625 76.339844 L 220.617188 76.339844 C 216.429688 76.339844 213.5 72.199219 214.890625 68.25 L 219.851562 54.171875 L 245.546875 58.109375 L 245.546875 71.855469 C 245.546875 74.332031 243.539062 76.339844 241.0625 76.339844 " fill-opacity="1" fill-rule="nonzero"/><path fill="#7d5e31" d="M 245.546875 58.109375 C 245.546875 65.371094 239.660156 71.257812 232.402344 71.257812 C 225.140625 71.257812 219.253906 65.371094 219.253906 58.109375 C 219.253906 50.847656 225.140625 44.960938 232.402344 44.960938 C 239.660156 44.960938 245.546875 50.847656 245.546875 58.109375 " fill-opacity="1" fill-rule="nonzero"/><path fill="#ffffff" d="M 286.664062 163.792969 L 284.3125 181.839844 L 293.363281 188.722656 L 298.207031 169.363281 L 286.664062 163.792969 " fill-opacity="1" fill-rule="nonzero"/><path fill="#7d5e31" d="M 284.988281 181.558594 L 292.976562 187.632812 L 297.464844 169.710938 L 287.183594 164.746094 Z M 293.359375 189.359375 C 293.222656 189.359375 293.089844 189.3125 292.976562 189.230469 L 283.925781 182.347656 C 283.746094 182.210938 283.648438 181.984375 283.679688 181.757812 L 286.035156 163.710938 C 286.0625 163.507812 286.183594 163.328125 286.363281 163.234375 C 286.542969 163.136719 286.757812 163.128906 286.941406 163.222656 L 298.484375 168.792969 C 298.753906 168.921875 298.894531 169.226562 298.824219 169.519531 L 293.976562 188.878906 C 293.925781 189.085938 293.773438 189.253906 293.570312 189.324219 C 293.503906 189.347656 293.433594 189.359375 293.359375 189.359375 " fill-opacity="1" fill-rule="nonzero"/><path fill="#7d5e31" d="M 242.042969 151.84375 C 242.042969 151.84375 283.636719 98.152344 299.199219 104.78125 C 314.769531 111.402344 308.46875 155.144531 298.871094 172.363281 L 284.785156 168.703125 L 284.785156 160.21875 L 275.867188 175.996094 L 242.042969 151.84375 " fill-opacity="1" fill-rule="nonzero"/><path fill="#48af1e" d="M 298.175781 175.589844 C 303.527344 179.324219 316.453125 188.679688 322.101562 196.609375 C 323.480469 198.542969 322.269531 201.246094 319.90625 201.488281 C 311.449219 202.339844 294.308594 201.082031 282.253906 190.964844 C 282.253906 190.964844 282.414062 187.09375 284.875 180.195312 L 291.289062 182.835938 L 290.804688 181.863281 C 290.074219 180.402344 290.4375 178.628906 291.683594 177.570312 L 293.761719 175.800781 C 295.019531 174.734375 296.828125 174.648438 298.175781 175.589844 " fill-opacity="1" fill-rule="nonzero"/><path fill="#ffffff" d="M 312.507812 198.671875 C 297.578125 198.671875 284.121094 190.105469 283.964844 190.003906 C 283.671875 189.8125 283.589844 189.421875 283.777344 189.125 C 283.96875 188.832031 284.363281 188.746094 284.65625 188.9375 C 284.832031 189.050781 302.410156 200.230469 319.375 196.722656 C 319.714844 196.648438 320.054688 196.871094 320.125 197.214844 C 320.195312 197.558594 319.976562 197.894531 319.628906 197.964844 C 317.253906 198.457031 314.859375 198.671875 312.507812 198.671875 " fill-opacity="1" fill-rule="nonzero"/><path fill="#ffffff" d="M 301.292969 186.433594 C 301.140625 186.433594 300.988281 186.378906 300.867188 186.269531 C 300.605469 186.03125 300.582031 185.628906 300.820312 185.371094 L 305.125 180.585938 C 305.363281 180.328125 305.765625 180.308594 306.027344 180.542969 C 306.285156 180.773438 306.304688 181.179688 306.070312 181.441406 L 301.765625 186.21875 C 301.640625 186.359375 301.46875 186.433594 301.292969 186.433594 " fill-opacity="1" fill-rule="nonzero"/><path fill="#ffffff" d="M 305.382812 189.359375 C 305.214844 189.359375 305.046875 189.292969 304.921875 189.160156 C 304.679688 188.90625 304.691406 188.503906 304.945312 188.261719 L 309.476562 183.972656 C 309.730469 183.730469 310.128906 183.742188 310.371094 183.996094 C 310.613281 184.25 310.605469 184.65625 310.347656 184.890625 L 305.820312 189.1875 C 305.695312 189.300781 305.539062 189.359375 305.382812 189.359375 " fill-opacity="1" fill-rule="nonzero"/><path fill="#ffffff" d="M 318.523438 263.863281 C 318.523438 264.316406 328.421875 285.90625 328.421875 285.90625 L 317.171875 286.808594 L 309.523438 268.363281 L 318.523438 263.863281 " fill-opacity="1" fill-rule="nonzero"/><path fill="#7d5e31" d="M 319.160156 263.863281 Z M 319.160156 263.863281 Z M 310.339844 268.667969 L 317.582031 286.136719 L 327.460938 285.347656 C 320.917969 271.058594 318.84375 266.347656 318.191406 264.742188 Z M 317.171875 287.445312 C 316.914062 287.445312 316.683594 287.289062 316.585938 287.050781 L 308.9375 268.609375 C 308.808594 268.296875 308.945312 267.941406 309.242188 267.796875 L 318.238281 263.296875 C 318.433594 263.195312 318.667969 263.207031 318.855469 263.324219 C 319.011719 263.417969 319.117188 263.574219 319.148438 263.75 C 319.453125 264.707031 325.191406 277.332031 328.996094 285.640625 C 329.082031 285.832031 329.074219 286.050781 328.96875 286.230469 C 328.863281 286.410156 328.675781 286.527344 328.472656 286.542969 L 317.222656 287.441406 C 317.207031 287.445312 317.191406 287.445312 317.171875 287.445312 " fill-opacity="1" fill-rule="nonzero"/><path fill="#48af1e" d="M 318.074219 281.410156 C 318.074219 281.410156 320.324219 276.011719 326.171875 278.710938 C 326.171875 278.710938 336.90625 294.21875 340.894531 307.023438 C 342.027344 310.640625 338.308594 313.90625 334.851562 312.34375 C 326.761719 308.691406 314.078125 301.023438 306.828125 286.808594 C 306.828125 286.808594 309.074219 280.960938 312.675781 278.257812 L 318.074219 281.410156 " fill-opacity="1" fill-rule="nonzero"/><path fill="#ffffff" d="M 337.601562 309.078125 C 334.574219 309.078125 323.472656 307.566406 309.011719 287.632812 C 308.804688 287.347656 308.867188 286.949219 309.152344 286.742188 C 309.433594 286.539062 309.832031 286.601562 310.039062 286.886719 C 326.199219 309.15625 338.105469 307.789062 338.226562 307.773438 C 338.574219 307.722656 338.894531 307.964844 338.945312 308.3125 C 338.996094 308.660156 338.753906 308.980469 338.410156 309.03125 C 338.34375 309.039062 338.066406 309.078125 337.601562 309.078125 " fill-opacity="1" fill-rule="nonzero"/><path fill="#ffffff" d="M 328.417969 296.890625 C 328.203125 296.890625 327.988281 296.777344 327.867188 296.578125 C 327.691406 296.273438 327.792969 295.882812 328.097656 295.707031 L 333.496094 292.554688 C 333.800781 292.378906 334.191406 292.480469 334.367188 292.785156 C 334.542969 293.089844 334.441406 293.480469 334.136719 293.65625 L 328.738281 296.804688 C 328.640625 296.863281 328.527344 296.890625 328.417969 296.890625 " fill-opacity="1" fill-rule="nonzero"/><path fill="#ffffff" d="M 325.722656 292.84375 C 325.492188 292.84375 325.273438 292.722656 325.160156 292.507812 C 324.996094 292.199219 325.109375 291.8125 325.417969 291.644531 L 331.269531 288.496094 C 331.578125 288.332031 331.964844 288.445312 332.128906 288.753906 C 332.296875 289.066406 332.179688 289.449219 331.871094 289.617188 L 326.023438 292.765625 C 325.925781 292.816406 325.824219 292.84375 325.722656 292.84375 " fill-opacity="1" fill-rule="nonzero"/><path fill="#7d5e31" d="M 322.121094 267.914062 L 306.824219 272.410156 C 306.824219 272.410156 278.933594 213.476562 270.835938 204.929688 C 262.738281 196.382812 246.992188 182.4375 230.347656 177.488281 C 213.699219 172.539062 213.699219 159.941406 213.699219 159.941406 L 250.019531 146.964844 C 250.019531 146.964844 281.632812 168.941406 294.675781 188.285156 C 307.726562 207.628906 322.121094 267.914062 322.121094 267.914062 " fill-opacity="1" fill-rule="nonzero"/><path fill="#ffffff" d="M 281.800781 173.917969 C 281.640625 173.917969 281.472656 173.851562 281.347656 173.726562 C 277.136719 169.386719 264.660156 158.90625 264.535156 158.796875 C 264.265625 158.570312 264.230469 158.171875 264.457031 157.902344 C 264.679688 157.636719 265.085938 157.597656 265.351562 157.824219 C 265.480469 157.929688 278.003906 168.453125 282.261719 172.835938 C 282.503906 173.089844 282.5 173.492188 282.246094 173.738281 C 282.125 173.859375 281.964844 173.917969 281.800781 173.917969 " fill-opacity="1" fill-rule="nonzero"/><path fill="#48af1e" d="M 240.179688 80.738281 C 240.179688 80.738281 253.664062 82.6875 262.023438 92.457031 C 270.382812 102.230469 283.097656 121.363281 283.417969 135.515625 C 283.746094 149.671875 265.796875 144.390625 258.398438 134.125 C 251 123.859375 240.179688 80.738281 240.179688 80.738281 " fill-opacity="1" fill-rule="nonzero"/><path fill="#48af1e" d="M 211.398438 83.351562 C 211.398438 83.351562 231.019531 75.675781 252.53125 84.8125 L 264.308594 143.683594 C 234.054688 158.308594 226.183594 196.957031 213.140625 165.796875 C 208.949219 155.78125 208.933594 144.0625 208.949219 142.035156 L 211.398438 83.351562 " fill-opacity="1" fill-rule="nonzero"/><path fill="#ffffff" d="M 281.511719 109.085938 C 281.511719 109.085938 284.75 132.835938 283.371094 137.089844 C 281.988281 141.34375 280.058594 146.480469 274.839844 141.871094 C 269.617188 137.265625 275.59375 114.332031 275.59375 114.332031 L 281.511719 109.085938 " fill-opacity="1" fill-rule="nonzero"/><path fill="#7d5e31" d="M 276.160156 114.679688 C 274.511719 121.097656 271.257812 137.863281 275.257812 141.394531 C 276.761719 142.71875 278.035156 143.253906 279.046875 142.976562 C 280.816406 142.492188 281.894531 139.582031 282.765625 136.894531 C 283.773438 133.789062 282.160156 118.816406 281.039062 110.351562 Z M 278.484375 144.324219 C 277.257812 144.324219 275.917969 143.671875 274.417969 142.347656 C 268.964844 137.535156 274.730469 115.121094 274.980469 114.171875 C 275.011719 114.046875 275.078125 113.9375 275.171875 113.855469 L 281.089844 108.609375 C 281.265625 108.453125 281.515625 108.40625 281.734375 108.488281 C 281.953125 108.570312 282.109375 108.765625 282.144531 109 C 282.273438 109.972656 285.386719 132.945312 283.976562 137.285156 C 282.957031 140.429688 281.761719 143.550781 279.382812 144.203125 C 279.089844 144.28125 278.792969 144.324219 278.484375 144.324219 " fill-opacity="1" fill-rule="nonzero"/><path fill="#ffffff" d="M 268.605469 122.871094 L 267.378906 122.148438 L 281.640625 96.074219 L 291.882812 95.917969 L 293.113281 96.640625 L 268.605469 122.871094 " fill-opacity="1" fill-rule="nonzero"/><path fill="#7d5e31" d="M 278.847656 122.714844 L 268.605469 122.871094 L 282.871094 96.800781 L 293.113281 96.640625 L 278.847656 122.714844 " fill-opacity="1" fill-rule="nonzero"/><path fill="#7d5e31" d="M 259.3125 127.15625 C 259.015625 127.15625 258.753906 126.953125 258.691406 126.652344 L 252.882812 98.949219 C 252.8125 98.609375 253.03125 98.269531 253.375 98.199219 C 253.714844 98.128906 254.058594 98.347656 254.128906 98.691406 L 259.9375 126.390625 C 260.007812 126.734375 259.789062 127.070312 259.441406 127.144531 C 259.398438 127.152344 259.355469 127.15625 259.3125 127.15625 " fill-opacity="1" fill-rule="nonzero"/><path fill="#48af1e" d="M 238.167969 131.242188 C 234.96875 131.097656 231.730469 130.480469 228.605469 129.167969 C 211.746094 122.097656 221.765625 94.820312 221.765625 94.820312 L 211.398438 83.351562 C 183.632812 105.324219 193.867188 139.472656 218.007812 147.417969 C 226.421875 150.1875 234.292969 149.667969 241.199219 147.5625 C 235.078125 141.175781 236.40625 134.929688 238.167969 131.242188 " fill-opacity="1" fill-rule="nonzero"/><path fill="#ffffff" d="M 278.78125 114.191406 L 277.988281 109.277344 L 269.414062 118.792969 L 271.855469 114.148438 C 271.855469 114.148438 269.78125 114.847656 268.132812 116.613281 C 266.53125 118.332031 264.59375 123.554688 264.476562 123.867188 C 261.0625 125.855469 249.875 131.757812 238.171875 131.242188 C 236.40625 134.925781 234.527344 140.574219 240.652344 146.964844 C 257.050781 141.96875 268.585938 128.652344 268.585938 128.652344 C 276.078125 124.898438 278.78125 114.191406 278.78125 114.191406 " fill-opacity="1" fill-rule="nonzero"/><path fill="#7d5e31" d="M 238.5625 131.894531 C 236.824219 135.683594 235.683594 140.65625 240.839844 146.242188 C 256.667969 141.273438 267.988281 128.371094 268.101562 128.238281 C 268.15625 128.179688 268.222656 128.125 268.296875 128.089844 C 275.027344 124.714844 277.800781 115.34375 278.125 114.160156 L 277.570312 110.691406 L 269.882812 119.222656 C 269.667969 119.460938 269.308594 119.503906 269.046875 119.316406 C 268.785156 119.132812 268.699219 118.785156 268.847656 118.5 L 270.375 115.597656 C 269.808594 115.957031 269.171875 116.433594 268.59375 117.050781 C 267.375 118.359375 265.753906 122.230469 265.070312 124.089844 C 265.019531 124.230469 264.921875 124.347656 264.792969 124.421875 C 261.597656 126.28125 250.351562 132.269531 238.5625 131.894531 Z M 240.648438 147.601562 C 240.476562 147.601562 240.3125 147.53125 240.1875 147.40625 C 234.007812 140.953125 235.554688 135.230469 237.59375 130.96875 C 237.703125 130.738281 237.929688 130.59375 238.195312 130.605469 C 249.570312 131.113281 260.554688 125.394531 263.957031 123.433594 C 264.386719 122.292969 266.125 117.832031 267.664062 116.183594 C 269.40625 114.320312 271.558594 113.578125 271.652344 113.546875 C 271.898438 113.464844 272.167969 113.539062 272.339844 113.738281 C 272.507812 113.9375 272.539062 114.214844 272.417969 114.445312 L 272.339844 114.597656 L 277.511719 108.855469 C 277.675781 108.671875 277.929688 108.601562 278.167969 108.671875 C 278.402344 108.738281 278.574219 108.9375 278.613281 109.179688 L 279.40625 114.09375 C 279.417969 114.179688 279.414062 114.265625 279.394531 114.351562 C 279.28125 114.796875 276.5625 125.28125 268.980469 129.167969 C 267.886719 130.390625 256.484375 142.808594 240.832031 147.574219 C 240.769531 147.59375 240.707031 147.601562 240.648438 147.601562 " fill-opacity="1" fill-rule="nonzero"/><path fill="#7d5e31" d="M 232.191406 131.304688 C 232.121094 131.304688 232.054688 131.292969 231.984375 131.269531 C 218.875 126.796875 217.902344 115.972656 218.515625 107.042969 C 218.539062 106.691406 218.851562 106.429688 219.195312 106.453125 C 219.546875 106.476562 219.808594 106.78125 219.785156 107.132812 C 218.902344 119.890625 222.675781 126.75 232.394531 130.0625 C 232.726562 130.179688 232.90625 130.539062 232.792969 130.871094 C 232.703125 131.136719 232.453125 131.304688 232.191406 131.304688 " fill-opacity="1" fill-rule="nonzero"/><path fill="#7d5e31" d="M 231.359375 149.890625 C 231.347656 149.890625 231.332031 149.890625 231.320312 149.890625 C 220.847656 149.265625 214.214844 147.636719 210.441406 144.765625 C 210.164062 144.554688 210.109375 144.152344 210.324219 143.875 C 210.539062 143.59375 210.9375 143.542969 211.214844 143.753906 C 214.726562 146.425781 221.328125 148.019531 231.398438 148.617188 C 231.746094 148.636719 232.011719 148.941406 231.992188 149.292969 C 231.972656 149.628906 231.691406 149.890625 231.359375 149.890625 " fill-opacity="1" fill-rule="nonzero"/><path fill="#ffffff" d="M 238.046875 72.410156 C 242.457031 71.535156 244.296875 57.8125 244.355469 57.617188 C 244.359375 57.609375 244.359375 57.605469 244.359375 57.601562 L 230.019531 56.671875 C 230.296875 57.429688 230.570312 58.117188 230.644531 58.589844 C 230.910156 60.207031 228.210938 58.1875 227.042969 58.707031 C 226.269531 59.054688 225.976562 60.105469 226.730469 61.542969 C 227.203125 62.441406 227.992188 63.320312 228.695312 63.738281 C 228.808594 64.589844 229.03125 65.433594 229.347656 66.242188 L 229.316406 66.226562 L 225.453125 78.140625 L 217.601562 81.632812 C 236.605469 90.070312 242.625 81.664062 242.625 81.664062 L 235.40625 78.929688 L 236.21875 72.457031 C 236.820312 72.539062 237.433594 72.53125 238.046875 72.410156 " fill-opacity="1" fill-rule="nonzero"/><path fill="#7d5e31" d="M 238.046875 72.40625 L 238.050781 72.40625 Z M 219.191406 81.621094 C 233.28125 87.476562 239.636719 83.558594 241.5 81.917969 L 235.183594 79.523438 C 234.90625 79.417969 234.738281 79.140625 234.773438 78.851562 L 235.589844 72.378906 C 235.613281 72.207031 235.703125 72.054688 235.832031 71.953125 C 235.96875 71.847656 236.136719 71.804688 236.304688 71.824219 C 236.859375 71.902344 237.402344 71.886719 237.925781 71.785156 C 240.132812 71.34375 242.304688 66.148438 243.617188 58.1875 L 230.957031 57.367188 C 231.105469 57.789062 231.222656 58.164062 231.273438 58.488281 C 231.375 59.105469 231.160156 59.441406 230.957031 59.613281 C 230.445312 60.058594 229.710938 59.828125 228.867188 59.5625 C 228.355469 59.398438 227.589844 59.15625 227.304688 59.285156 C 227.152344 59.355469 227.042969 59.476562 226.984375 59.648438 C 226.851562 60.035156 226.964844 60.613281 227.292969 61.242188 C 227.707031 62.027344 228.417969 62.828125 229.023438 63.191406 C 229.191406 63.289062 229.304688 63.460938 229.328125 63.65625 C 229.433594 64.433594 229.636719 65.222656 229.941406 66.011719 C 230.027344 66.21875 229.992188 66.457031 229.855469 66.632812 L 226.0625 78.332031 C 226.003906 78.503906 225.878906 78.644531 225.714844 78.71875 Z M 232.613281 86.046875 C 228.808594 86.046875 223.8125 85.082031 217.34375 82.214844 C 217.117188 82.109375 216.96875 81.882812 216.96875 81.628906 C 216.96875 81.382812 217.117188 81.152344 217.34375 81.050781 L 224.9375 77.671875 L 228.65625 66.199219 C 228.402344 65.503906 228.21875 64.804688 228.109375 64.109375 C 227.375 63.589844 226.636719 62.730469 226.167969 61.835938 C 225.527344 60.613281 225.605469 59.746094 225.78125 59.234375 C 225.957031 58.730469 226.3125 58.335938 226.785156 58.125 C 227.511719 57.800781 228.433594 58.09375 229.25 58.347656 C 229.472656 58.421875 229.773438 58.515625 229.996094 58.5625 C 229.917969 58.226562 229.742188 57.75 229.558594 57.253906 L 229.425781 56.890625 C 229.351562 56.6875 229.382812 56.460938 229.515625 56.289062 C 229.640625 56.117188 229.847656 56.023438 230.0625 56.039062 L 244.402344 56.960938 C 244.59375 56.972656 244.769531 57.074219 244.882812 57.230469 C 244.992188 57.390625 245.023438 57.589844 244.972656 57.773438 C 244.972656 57.785156 244.960938 57.863281 244.9375 57.980469 C 244.09375 63.269531 242.097656 72.253906 238.171875 73.03125 C 237.71875 73.121094 237.25 73.15625 236.777344 73.140625 L 236.101562 78.511719 L 242.851562 81.070312 C 243.035156 81.140625 243.175781 81.289062 243.234375 81.480469 C 243.292969 81.667969 243.257812 81.871094 243.140625 82.035156 C 242.96875 82.273438 240.140625 86.046875 232.613281 86.046875 " fill-opacity="1" fill-rule="nonzero"/><path fill="#ffffff" d="M 231.882812 69.011719 C 231.882812 69.011719 232.773438 72.183594 236.21875 72.460938 L 231.882812 69.011719 " fill-opacity="1" fill-rule="nonzero"/><path fill="#7d5e31" d="M 236.222656 73.09375 C 236.203125 73.09375 236.1875 73.09375 236.171875 73.09375 C 232.324219 72.785156 231.3125 69.328125 231.273438 69.183594 C 231.175781 68.84375 231.375 68.492188 231.710938 68.398438 C 232.050781 68.304688 232.398438 68.5 232.496094 68.835938 C 232.527344 68.949219 233.328125 71.585938 236.273438 71.824219 C 236.621094 71.851562 236.882812 72.160156 236.855469 72.511719 C 236.828125 72.84375 236.550781 73.09375 236.222656 73.09375 " fill-opacity="1" fill-rule="nonzero"/><path fill="#c1914b" d="M 158.980469 352.402344 C 158.980469 352.402344 140.941406 312.863281 151.289062 261.609375 C 151.289062 261.609375 179.246094 285.035156 169.167969 352.402344 L 158.980469 352.402344 " fill-opacity="1" fill-rule="nonzero"/><path fill="#7d5e31" d="M 159.398438 351.765625 L 168.621094 351.765625 C 173.671875 317.414062 168.589844 294.863281 163.417969 281.980469 C 158.945312 270.835938 153.671875 264.855469 151.691406 262.863281 C 146.660156 288.75 148.996094 311.472656 151.871094 326.058594 C 154.691406 340.371094 158.5625 349.820312 159.398438 351.765625 Z M 169.167969 353.039062 L 158.980469 353.039062 C 158.730469 353.039062 158.503906 352.890625 158.402344 352.664062 C 158.355469 352.566406 153.824219 342.527344 150.632812 326.351562 C 147.683594 311.429688 145.300781 288.0625 150.664062 261.484375 C 150.710938 261.261719 150.867188 261.082031 151.078125 261.011719 C 151.289062 260.933594 151.527344 260.976562 151.699219 261.121094 C 151.988281 261.363281 158.875 267.246094 164.597656 281.507812 C 169.855469 294.605469 175.023438 317.558594 169.796875 352.496094 C 169.75 352.808594 169.484375 353.039062 169.167969 353.039062 " fill-opacity="1" fill-rule="nonzero"/><path fill="#ffffff" d="M 163.390625 348.917969 C 163.378906 348.917969 163.367188 348.914062 163.355469 348.914062 C 163.003906 348.894531 162.738281 348.597656 162.753906 348.246094 C 164.136719 322.980469 152.742188 269.039062 152.628906 268.496094 C 152.554688 268.15625 152.773438 267.816406 153.117188 267.742188 C 153.460938 267.671875 153.796875 267.890625 153.871094 268.234375 C 153.988281 268.777344 165.414062 322.882812 164.027344 348.3125 C 164.007812 348.652344 163.726562 348.917969 163.390625 348.917969 " fill-opacity="1" fill-rule="nonzero"/><path fill="#ffffff" d="M 177.128906 288.121094 C 177.128906 288.121094 153.886719 330.109375 167.867188 348.28125 L 175.34375 348.28125 C 175.34375 348.28125 190.289062 315.457031 177.128906 288.121094 " fill-opacity="1" fill-rule="nonzero"/><path fill="#7d5e31" d="M 168.183594 347.644531 L 174.929688 347.644531 C 176.476562 344 188.320312 314.511719 177.089844 289.546875 C 173.589844 296.277344 156.238281 331.53125 168.183594 347.644531 Z M 175.34375 348.917969 L 167.867188 348.917969 C 167.667969 348.917969 167.480469 348.824219 167.363281 348.667969 C 161.429688 340.957031 161.191406 328.351562 166.648438 311.195312 C 170.683594 298.511719 176.511719 287.917969 176.570312 287.8125 C 176.6875 287.605469 176.898438 287.472656 177.144531 287.488281 C 177.382812 287.492188 177.597656 287.628906 177.699219 287.847656 C 184.574219 302.117188 183.722656 317.867188 181.796875 328.566406 C 179.714844 340.128906 175.960938 348.460938 175.921875 348.542969 C 175.820312 348.769531 175.59375 348.917969 175.34375 348.917969 " fill-opacity="1" fill-rule="nonzero"/><path fill="#7d5e31" d="M 171.359375 350.027344 C 171.019531 350.027344 170.734375 349.761719 170.722656 349.417969 C 170.050781 332.074219 176.433594 288.46875 176.496094 288.027344 C 176.550781 287.683594 176.875 287.4375 177.21875 287.492188 C 177.566406 287.542969 177.808594 287.867188 177.757812 288.214844 C 177.691406 288.652344 171.324219 332.144531 171.992188 349.367188 C 172.007812 349.71875 171.734375 350.015625 171.382812 350.027344 C 171.375 350.027344 171.367188 350.027344 171.359375 350.027344 " fill-opacity="1" fill-rule="nonzero"/><path fill="#ffffff" d="M 132.757812 303.773438 C 132.757812 303.773438 152.554688 310.53125 159.722656 350.519531 L 151.933594 350.519531 C 151.933594 350.519531 135.6875 328.558594 132.757812 303.773438 " fill-opacity="1" fill-rule="nonzero"/><path fill="#7d5e31" d="M 152.261719 349.882812 L 158.960938 349.882812 C 152.761719 316.414062 137.535156 306.796875 133.527344 304.808594 C 136.558594 327.273438 150.484375 347.390625 152.261719 349.882812 Z M 159.722656 351.152344 L 151.933594 351.152344 C 151.734375 351.152344 151.542969 351.058594 151.425781 350.898438 C 151.261719 350.675781 135.039062 328.511719 132.125 303.847656 C 132.101562 303.632812 132.1875 303.417969 132.355469 303.28125 C 132.527344 303.144531 132.757812 303.101562 132.960938 303.171875 C 133.167969 303.246094 138.140625 304.996094 144.03125 311.730469 C 149.417969 317.894531 156.621094 329.605469 160.351562 350.40625 C 160.382812 350.589844 160.332031 350.78125 160.210938 350.925781 C 160.089844 351.070312 159.910156 351.152344 159.722656 351.152344 " fill-opacity="1" fill-rule="nonzero"/><path fill="#7d5e31" d="M 155.46875 350.027344 C 155.160156 350.027344 154.890625 349.808594 154.839844 349.496094 C 151.898438 331.722656 139.160156 313.800781 139.03125 313.621094 C 138.828125 313.335938 138.894531 312.9375 139.179688 312.734375 C 139.464844 312.527344 139.863281 312.59375 140.066406 312.878906 C 140.195312 313.0625 153.101562 331.214844 156.09375 349.289062 C 156.152344 349.636719 155.917969 349.960938 155.570312 350.019531 C 155.535156 350.023438 155.5 350.027344 155.46875 350.027344 " fill-opacity="1" fill-rule="nonzero"/><path fill="#48af1e" d="M 140.394531 347.34375 L 189.238281 347.34375 L 190.332031 370.449219 C 190.601562 376.113281 186.082031 380.851562 180.410156 380.851562 L 152.515625 380.851562 C 145.804688 380.851562 140.367188 375.410156 140.375 368.699219 L 140.394531 347.34375 " fill-opacity="1" fill-rule="nonzero"/><path fill="#7d5e31" d="M 257.554688 226.785156 C 257.207031 226.785156 256.925781 226.507812 256.917969 226.164062 L 256.871094 223.90625 C 256.863281 223.558594 257.140625 223.265625 257.492188 223.257812 C 257.496094 223.257812 257.5 223.257812 257.503906 223.257812 C 257.847656 223.257812 258.132812 223.535156 258.140625 223.878906 L 258.1875 226.136719 C 258.195312 226.484375 257.917969 226.777344 257.566406 226.785156 C 257.5625 226.785156 257.554688 226.785156 257.554688 226.785156 " fill-opacity="1" fill-rule="nonzero"/><path fill="#7d5e31" d="M 257.722656 234.675781 C 257.378906 234.675781 257.09375 234.398438 257.085938 234.054688 L 257.039062 231.800781 C 257.03125 231.449219 257.308594 231.15625 257.660156 231.148438 C 257.664062 231.148438 257.671875 231.148438 257.675781 231.148438 C 258.019531 231.148438 258.300781 231.425781 258.308594 231.773438 L 258.359375 234.027344 C 258.367188 234.378906 258.085938 234.667969 257.738281 234.675781 C 257.734375 234.675781 257.730469 234.675781 257.722656 234.675781 " fill-opacity="1" fill-rule="nonzero"/><path fill="#7d5e31" d="M 252.613281 229.644531 C 252.261719 229.644531 251.980469 229.363281 251.976562 229.011719 C 251.976562 228.664062 252.257812 228.375 252.609375 228.371094 L 254.832031 228.355469 C 254.832031 228.355469 254.832031 228.355469 254.835938 228.355469 C 255.183594 228.355469 255.46875 228.636719 255.46875 228.984375 C 255.472656 229.335938 255.191406 229.625 254.839844 229.628906 L 252.617188 229.644531 C 252.617188 229.644531 252.613281 229.644531 252.613281 229.644531 " fill-opacity="1" fill-rule="nonzero"/><path fill="#7d5e31" d="M 260.390625 229.582031 C 260.039062 229.582031 259.753906 229.300781 259.753906 228.949219 C 259.75 228.601562 260.03125 228.3125 260.382812 228.308594 L 262.605469 228.292969 C 262.949219 228.289062 263.242188 228.570312 263.246094 228.921875 C 263.25 229.277344 262.964844 229.5625 262.613281 229.566406 L 260.394531 229.582031 C 260.390625 229.582031 260.390625 229.582031 260.390625 229.582031 " fill-opacity="1" fill-rule="nonzero"/><path fill="#7d5e31" d="M 254.832031 356.542969 C 254.671875 356.542969 254.511719 356.480469 254.382812 356.359375 C 254.136719 356.109375 254.136719 355.707031 254.382812 355.460938 L 299.625 310.21875 C 299.871094 309.972656 300.273438 309.972656 300.523438 310.21875 C 300.769531 310.46875 300.769531 310.871094 300.523438 311.121094 L 255.28125 356.359375 C 255.160156 356.480469 254.996094 356.542969 254.832031 356.542969 " fill-opacity="1" fill-rule="nonzero"/><path fill="#7d5e31" d="M 236.222656 360.398438 C 236.058594 360.398438 235.898438 360.335938 235.773438 360.214844 C 235.523438 359.964844 235.523438 359.5625 235.773438 359.3125 L 261.09375 333.992188 C 261.34375 333.742188 261.746094 333.742188 261.992188 333.992188 C 262.242188 334.238281 262.242188 334.644531 261.992188 334.890625 L 236.671875 360.214844 C 236.546875 360.335938 236.382812 360.398438 236.222656 360.398438 " fill-opacity="1" fill-rule="nonzero"/><path fill="#7d5e31" d="M 196.996094 42.171875 C 196.101562 42.171875 195.375 42.898438 195.375 43.792969 C 195.375 44.683594 196.101562 45.414062 196.996094 45.414062 C 197.886719 45.414062 198.617188 44.683594 198.617188 43.792969 C 198.617188 42.898438 197.886719 42.171875 196.996094 42.171875 Z M 196.996094 46.683594 C 195.402344 46.683594 194.101562 45.386719 194.101562 43.792969 C 194.101562 42.199219 195.402344 40.898438 196.996094 40.898438 C 198.589844 40.898438 199.886719 42.199219 199.886719 43.792969 C 199.886719 45.386719 198.589844 46.683594 196.996094 46.683594 " fill-opacity="1" fill-rule="nonzero"/><path fill="#7d5e31" d="M 328.417969 157.347656 C 324.855469 157.347656 321.957031 154.449219 321.957031 150.886719 C 321.957031 147.324219 324.855469 144.425781 328.417969 144.425781 C 328.769531 144.425781 329.054688 144.710938 329.054688 145.0625 C 329.054688 145.414062 328.769531 145.699219 328.417969 145.699219 C 325.558594 145.699219 323.230469 148.027344 323.230469 150.886719 C 323.230469 153.75 325.558594 156.074219 328.417969 156.074219 C 331.28125 156.074219 333.605469 153.75 333.605469 150.886719 C 333.605469 150.535156 333.890625 150.25 334.242188 150.25 C 334.59375 150.25 334.878906 150.535156 334.878906 150.886719 C 334.878906 154.449219 331.980469 157.347656 328.417969 157.347656 " fill-opacity="1" fill-rule="nonzero"/><path fill="#ffffff" d="M 139.070312 72.070312 C 139.070312 73.8125 137.65625 75.226562 135.914062 75.226562 C 134.171875 75.226562 132.757812 73.8125 132.757812 72.070312 C 132.757812 70.328125 134.171875 68.914062 135.914062 68.914062 C 137.65625 68.914062 139.070312 70.328125 139.070312 72.070312 " fill-opacity="1" fill-rule="nonzero"/><path fill="#7d5e31" d="M 161.339844 75.800781 C 161.175781 75.800781 161.011719 75.738281 160.890625 75.613281 C 160.640625 75.367188 160.640625 74.964844 160.890625 74.714844 L 184.367188 51.234375 C 184.617188 50.988281 185.019531 50.988281 185.269531 51.234375 C 185.515625 51.484375 185.515625 51.886719 185.269531 52.136719 L 161.789062 75.613281 C 161.664062 75.738281 161.5 75.800781 161.339844 75.800781 " fill-opacity="1" fill-rule="nonzero"/><path fill="#7d5e31" d="M 317.835938 212.878906 C 317.671875 212.878906 317.507812 212.816406 317.386719 212.695312 C 317.136719 212.445312 317.136719 212.042969 317.386719 211.796875 L 343.5 185.679688 C 343.746094 185.433594 344.152344 185.433594 344.398438 185.679688 C 344.648438 185.929688 344.648438 186.332031 344.398438 186.578125 L 318.285156 212.695312 C 318.160156 212.816406 317.996094 212.878906 317.835938 212.878906 " fill-opacity="1" fill-rule="nonzero"/></svg>